<?xml version="1.0" encoding="UTF-8"?>
<svg id="Layer_2" data-name="Layer 2" xmlns="http://www.w3.org/2000/svg" viewBox="0 0 230.68 230.68">
  <g id="Layer_1-2" data-name="Layer 1">
    <g>
      <path fill="#25272C" d="M166.71,0H63.96C28.69,0,0,28.69,0,63.96v102.75c0,35.27,28.69,63.96,63.96,63.96h102.75c35.27,0,63.96-28.69,63.96-63.96V63.96c0-35.27-28.69-63.96-63.96-63.96ZM224.78,166.71c0,32.02-26.05,58.07-58.07,58.07H63.96c-32.02,0-58.07-26.05-58.07-58.07V63.96C5.89,31.95,31.94,5.89,63.96,5.89h102.75c32.02,0,58.07,26.05,58.07,58.07v102.75Z"/>
      <path fill="#25272C" d="M156.1,179.77c-1.4.67-2.9,1.04-4.4,1.04-2.28,0-3.89-.78-4.97-2.33-1.04-1.5-1.55-4.04-1.55-7.51v-58.4c0-6.74-.57-12.49-1.66-17.36-1.14-4.82-3.52-8.91-7.15-12.28-1.83-1.69-3.96-3.11-6.42-4.28,2.58-2.25,4.83-4.54,6.73-6.92,1.04-1.24,1.97-2.49,2.8-3.73,3.01-4.46,5.08-8.55,6.17-12.33.98-3.26,1.45-6.37,1.45-9.22.05-2.9-1.09-5.75-3.37-8.6-2.02-2.54-4.56-4.2-7.67-5.03-3.11-.88-6.22,0-9.38,2.54-2.75,2.18-4.35,4.77-4.82,7.77-.47,2.95.36,5.8,2.54,8.55,2.23,2.75,4.77,4.35,7.72,4.87,2.9.52,5.6.21,8.03-1.04.05,3.89-1.14,7.46-3.68,10.73-2.49,3.26-5.08,5.96-7.82,8.19-.52.41-1.09.83-1.61,1.19-.61.45-1.22.86-1.84,1.24-3.84-1.13-8.39-1.7-13.61-1.7-6.32,0-11.92.78-16.95,2.33-.16,0-.26.05-.41.1-3.52,1.09-6.58,2.38-9.22,3.78-1.19.62-2.28,1.3-3.26,1.97-.1.05-.21.16-.31.26-.83.52-1.55,1.14-2.28,1.71-1.66,1.4-3.11,2.85-4.35,4.35-1.81,2.23-2.69,5.18-2.69,8.81,0,3.21.93,6.17,2.8,8.71,1.92,2.64,4.87,3.89,8.96,3.89,3.47,0,6.32-.98,8.6-3.01,2.23-2.02,3.37-4.82,3.37-8.29s-.98-6.37-2.95-8.65c-1.97-2.23-4.3-3.63-6.94-4.2,2.38-3.06,5.54-5.08,9.59-6.06,3.94-.98,7.72-1.5,11.19-1.5,3.68,0,6.94.57,9.9,1.61,2.95,1.04,5.29,3.11,7.05,6.17,1.71,3.11,2.59,7.57,2.59,13.47v13.01c0,3.21-1.45,5.8-4.3,7.77-2.85,1.97-6.53,3.68-11.04,5.13-4.46,1.5-9.17,3.01-14.15,4.66-4.97,1.61-9.69,3.58-14.2,5.96-4.46,2.38-8.14,5.54-11.04,9.43-2.85,3.94-4.3,8.96-4.3,15.13,0,5.18,1.09,9.74,3.26,13.68,2.18,3.89,5.39,6.94,9.59,9.12,4.2,2.18,9.17,3.26,14.87,3.26,6.58,0,12.49-1.55,17.77-4.61,5.23-3.11,9.74-7.77,13.53-14.1,0,4.2.67,7.67,2.02,10.42,1.3,2.69,3.32,4.77,5.96,6.17,2.69,1.4,6.01,2.12,10.1,2.12,4.46,0,8.03-.73,10.67-2.23,2.69-1.45,5.49-3.32,8.45-5.54l-2.33-3.58c-1.97,1.55-3.63,2.64-5.03,3.37ZM126.25,163.39c-3.21,5.29-6.79,9.28-10.78,11.97-3.99,2.64-8.34,3.99-12.96,3.99-5.18,0-9.28-1.71-12.28-5.08-3.01-3.32-4.51-7.82-4.51-13.42s1.14-10.16,3.37-13.63c2.23-3.52,5.08-6.37,8.5-8.55,3.42-2.12,7.05-4.04,10.83-5.65,3.78-1.61,7.25-3.21,10.47-4.82,3.26-1.61,5.7-3.63,7.36-6.01v41.2Z"/>
    </g>
  </g>
</svg>