<?xml version="1.0" encoding="UTF-8"?>
<svg id="Layer_2" data-name="Layer 2" xmlns="http://www.w3.org/2000/svg" viewBox="0 0 88.09 88.09">
  <defs>
    <style>
      .cls-1 {
        fill: #1c202c;
      }

      .cls-2 {
        fill: #fff;
      }
    </style>
  </defs>
  <g id="Layer_1-2" data-name="Layer 1">
    <g>
      <rect class="cls-1" x="0" y="0" width="88.09" height="88.09" rx="23.91" ry="23.91"/>
      <g>
        <path class="cls-2" d="M61.99,67.97c-.77.61-1.42,1.04-1.97,1.32-.55.26-1.14.41-1.73.41-.89,0-1.52-.3-1.95-.91-.41-.59-.61-1.58-.61-2.94v-22.89c0-2.64-.22-4.89-.65-6.8-.45-1.89-1.38-3.49-2.8-4.81-1.06-.97-2.36-1.73-3.96-2.25-1.58-.53-3.51-.79-5.75-.79-2.48,0-4.67.3-6.64.91-.06,0-.1.02-.16.04-1.38.43-2.58.93-3.61,1.48-.47.24-.89.51-1.28.77-.04.02-.08.06-.12.1-.32.2-.61.45-.89.67-.65.55-1.22,1.12-1.71,1.71-.71.87-1.06,2.03-1.06,3.45,0,1.26.37,2.42,1.1,3.41.75,1.04,1.91,1.52,3.51,1.52,1.36,0,2.48-.39,3.37-1.18.87-.79,1.32-1.89,1.32-3.25s-.39-2.5-1.16-3.39c-.77-.87-1.69-1.42-2.72-1.64.93-1.2,2.17-1.99,3.76-2.38,1.54-.39,3.03-.59,4.39-.59,1.44,0,2.72.22,3.88.63,1.16.41,2.07,1.22,2.76,2.42.67,1.22,1.02,2.97,1.02,5.28v5.1c0,1.26-.57,2.27-1.69,3.05-1.12.77-2.56,1.44-4.33,2.01-1.75.59-3.59,1.18-5.54,1.83-1.95.63-3.8,1.4-5.56,2.34-1.75.93-3.19,2.17-4.33,3.7-1.12,1.54-1.69,3.51-1.69,5.93,0,2.03.43,3.82,1.28,5.36.85,1.52,2.11,2.72,3.76,3.57,1.64.85,3.59,1.28,5.83,1.28,2.58,0,4.89-.61,6.97-1.81,2.05-1.22,3.82-3.05,5.3-5.52,0,1.64.26,3.01.79,4.08.51,1.06,1.3,1.87,2.34,2.42,1.06.55,2.36.83,3.96.83,1.75,0,3.15-.28,4.18-.87,1.06-.57,2.15-1.3,3.31-2.17l-.91-1.4ZM48.32,62.88c-1.26,2.07-2.66,3.64-4.22,4.69-1.56,1.04-3.27,1.56-5.08,1.56-2.03,0-3.64-.67-4.81-1.99-1.18-1.3-1.77-3.07-1.77-5.26s.45-3.98,1.32-5.34c.87-1.38,1.99-2.5,3.33-3.35,1.34-.83,2.76-1.58,4.24-2.21,1.48-.63,2.84-1.26,4.1-1.89,1.28-.63,2.23-1.42,2.88-2.36v16.15Z"/>
        <path class="cls-2" d="M56.49,17.04c0,1.12-.18,2.34-.57,3.61-.43,1.48-1.24,3.09-2.42,4.83-.32.49-.69.97-1.1,1.46-.97,1.22-2.17,2.38-3.59,3.51l-2.48-.45c.28-.22.57-.47.89-.67.47-.24.93-.53,1.4-.87.2-.14.43-.3.63-.47,1.08-.87,2.09-1.93,3.07-3.21,1-1.28,1.46-2.68,1.44-4.2-.95.49-2.01.61-3.15.41-1.16-.2-2.15-.83-3.03-1.91-.85-1.08-1.18-2.19-1-3.35.18-1.18.81-2.19,1.89-3.05,1.24-1,2.46-1.34,3.68-1,1.22.33,2.21.97,3.01,1.97.89,1.12,1.34,2.23,1.32,3.37Z"/>
      </g>
    </g>
  </g>
</svg>