<?xml version="1.0" encoding="UTF-8"?>
<svg id="Layer_2" data-name="Layer 2" xmlns="http://www.w3.org/2000/svg" viewBox="0 0 194.14 56.83">
  <defs>
    <style>
      .cls-1 {
        fill: #25272c;
      }
    </style>
  </defs>
  <g id="Layer_1-2" data-name="Layer 1">
    <g>
      <g>
        <g>
          <path class="cls-1" d="M95.98,46.71l-3.95-10.19h-12.87l-3.93,10.19h-3.78l12.56-32.25h3.36l12.48,32.25h-3.87ZM90.91,33.2l-3.76-10.13c-.09-.26-.23-.7-.43-1.3s-.4-1.22-.6-1.87c-.21-.64-.37-1.16-.51-1.56-.15.6-.3,1.2-.47,1.79s-.33,1.14-.49,1.65c-.16.5-.3.93-.42,1.28l-3.82,10.13h10.5Z"/>
          <path class="cls-1" d="M105.6,13.63c.6,0,1.12.19,1.55.58s.65.99.65,1.81-.22,1.41-.65,1.8c-.43.4-.95.59-1.55.59s-1.15-.2-1.57-.59-.63-1-.63-1.8.21-1.42.63-1.81.94-.58,1.57-.58ZM107.38,22.63v24.07h-3.65v-24.07h3.65Z"/>
          <path class="cls-1" d="M130.66,40.12c0,1.54-.38,2.83-1.15,3.88-.77,1.05-1.87,1.83-3.29,2.36-1.43.53-3.13.79-5.11.79-1.68,0-3.14-.13-4.37-.4-1.23-.26-2.31-.64-3.23-1.12v-3.36c.98.48,2.15.92,3.51,1.32,1.36.4,2.75.59,4.17.59,2.08,0,3.59-.34,4.53-1.01s1.41-1.59,1.41-2.75c0-.66-.19-1.24-.56-1.75s-1-1-1.88-1.47c-.88-.48-2.09-1-3.65-1.57-1.54-.58-2.87-1.17-3.99-1.75-1.12-.58-1.98-1.28-2.59-2.12-.61-.84-.91-1.92-.91-3.25,0-2.04.82-3.6,2.47-4.69s3.81-1.64,6.49-1.64c1.45,0,2.81.14,4.07.43,1.27.29,2.45.67,3.55,1.15l-1.23,2.92c-1-.43-2.06-.78-3.19-1.08-1.13-.29-2.28-.44-3.45-.44-1.68,0-2.98.28-3.88.84-.9.56-1.35,1.32-1.35,2.28,0,.75.21,1.36.63,1.85s1.09.94,2.01,1.36,2.14.92,3.65,1.49c1.51.56,2.81,1.13,3.91,1.73,1.1.59,1.94,1.31,2.54,2.15.59.84.89,1.92.89,3.24v.02Z"/>
          <path class="cls-1" d="M140.2,46.71h-3.67V12.53h3.67v34.18Z"/>
          <path class="cls-1" d="M157.15,22.19c2.05,0,3.81.45,5.27,1.36s2.58,2.18,3.36,3.81,1.16,3.54,1.16,5.72v2.26h-16.63c.04,2.83.75,4.98,2.11,6.46,1.36,1.48,3.28,2.22,5.75,2.22,1.52,0,2.87-.14,4.04-.42s2.39-.69,3.65-1.23v3.21c-1.21.54-2.42.94-3.61,1.19s-2.6.37-4.23.37c-2.31,0-4.33-.47-6.05-1.42s-3.06-2.33-4.01-4.16-1.43-4.07-1.43-6.72.44-4.84,1.31-6.73,2.1-3.36,3.69-4.38,3.46-1.54,5.61-1.54h0ZM157.11,25.18c-1.95,0-3.5.64-4.66,1.91s-1.85,3.05-2.06,5.34h12.74c0-1.43-.24-2.7-.67-3.79s-1.09-1.94-1.97-2.55-2.01-.91-3.38-.91Z"/>
        </g>
        <g>
          <path class="cls-1" d="M175.59,22.46h-1.5v-11.48h-4.02v-1.31h9.53v1.31h-4.01v11.48Z"/>
          <path class="cls-1" d="M187.16,22.46l-4.3-11.32h-.07c.02.24.04.53.06.87s.03.72.04,1.12.02.82.02,1.24v8.08h-1.38v-12.79h2.2l4.05,10.64h.06l4.11-10.64h2.19v12.79h-1.47v-8.19c0-.38,0-.76.02-1.14,0-.38.03-.74.04-1.09.02-.34.04-.64.05-.89h-.07l-4.35,11.3h-1.22l.02.02Z"/>
        </g>
      </g>
      <g>
        <path class="cls-1" d="M41.06,0H15.76C7.07,0,0,7.07,0,15.76v25.31c0,8.69,7.07,15.76,15.76,15.76h25.31c8.69,0,15.76-7.07,15.76-15.76V15.76c0-8.69-7.07-15.76-15.76-15.76h0ZM55.37,41.07c0,7.89-6.42,14.3-14.3,14.3H15.76c-7.89,0-14.3-6.42-14.3-14.3V15.76C1.46,7.87,7.88,1.46,15.76,1.46h25.31c7.89,0,14.3,6.42,14.3,14.3v25.31Z"/>
        <path class="cls-1" d="M38.45,44.28c-.34.17-.71.26-1.08.26-.56,0-.96-.19-1.23-.57-.26-.37-.38-1-.38-1.85v-14.39c0-1.66-.14-3.08-.41-4.28-.28-1.19-.87-2.2-1.76-3.03-.45-.42-.98-.77-1.58-1.05.63-.55,1.19-1.12,1.66-1.71.26-.31.49-.61.69-.92.74-1.1,1.25-2.11,1.52-3.04.24-.8.36-1.57.36-2.27,0-.71-.27-1.42-.83-2.12-.5-.63-1.12-1.03-1.89-1.24-.77-.22-1.53,0-2.31.63-.68.54-1.07,1.17-1.19,1.91-.11.73.09,1.43.63,2.11.55.68,1.17,1.07,1.9,1.2.71.13,1.38.05,1.98-.26,0,.96-.28,1.84-.91,2.64-.61.8-1.25,1.47-1.93,2.02-.13.1-.27.2-.4.29-.15.11-.3.21-.45.31-.94-.28-2.07-.42-3.35-.42-1.56,0-2.94.19-4.17.57-.04,0-.06,0-.1.03-.87.27-1.62.59-2.27.93-.29.15-.56.32-.8.49-.03,0-.05.04-.08.06-.2.13-.38.28-.56.42-.41.34-.77.7-1.07,1.07-.45.55-.66,1.28-.66,2.17,0,.79.23,1.52.69,2.14.47.65,1.2.96,2.21.96.86,0,1.56-.24,2.12-.74.55-.5.83-1.19.83-2.04s-.24-1.57-.73-2.13c-.49-.55-1.06-.89-1.71-1.03.59-.75,1.37-1.25,2.36-1.49.97-.24,1.9-.37,2.76-.37.91,0,1.71.14,2.44.4s1.3.77,1.74,1.52c.42.77.64,1.86.64,3.32v3.2c0,.79-.36,1.43-1.06,1.91-.7.49-1.61.91-2.72,1.26-1.1.37-2.26.74-3.48,1.15-1.23.4-2.39.88-3.5,1.47-1.1.59-2,1.37-2.72,2.32-.7.97-1.06,2.21-1.06,3.73,0,1.28.27,2.4.8,3.37.54.96,1.33,1.71,2.36,2.25s2.26.8,3.66.8c1.62,0,3.08-.38,4.38-1.14,1.29-.77,2.4-1.91,3.33-3.47,0,1.03.17,1.89.5,2.57.32.66.82,1.17,1.47,1.52.66.34,1.48.52,2.49.52,1.1,0,1.98-.18,2.63-.55.66-.36,1.35-.82,2.08-1.37l-.57-.88c-.49.38-.89.65-1.24.83h-.03ZM31.1,40.25c-.79,1.3-1.67,2.28-2.65,2.95-.98.65-2.06.98-3.19.98-1.28,0-2.28-.42-3.03-1.25-.74-.82-1.11-1.93-1.11-3.31s.28-2.5.83-3.36c.55-.87,1.25-1.57,2.09-2.11.84-.52,1.74-1,2.67-1.39.93-.4,1.79-.79,2.58-1.19.8-.4,1.4-.89,1.81-1.48v10.15h0Z"/>
      </g>
    </g>
  </g>
</svg>