<?xml version="1.0" encoding="UTF-8"?>
<svg id="Layer_2" data-name="Layer 2" xmlns="http://www.w3.org/2000/svg" viewBox="0 0 303.56 56.83">
  <defs>
    <style>
      .cls-1 {
        fill: #25272c;
      }
    </style>
  </defs>
  <g id="Layer_1-2" data-name="Layer 1">
    <g>
      <g>
        <g>
          <path class="cls-1" d="M95.98,47.12l-3.95-10.19h-12.87l-3.93,10.19h-3.78l12.56-32.25h3.36l12.48,32.25h-3.87ZM90.91,33.61l-3.76-10.13c-.09-.26-.23-.7-.43-1.3-.2-.6-.4-1.22-.6-1.87-.21-.64-.37-1.16-.51-1.56-.15.6-.3,1.2-.47,1.79s-.33,1.14-.49,1.65c-.16.5-.3.93-.42,1.28l-3.82,10.13h10.5Z"/>
          <path class="cls-1" d="M123.61,23.04v24.07h-2.99l-.53-3.38h-.2c-.5.84-1.14,1.54-1.93,2.11s-1.68,1-2.67,1.28c-.99.29-2.04.43-3.15.43-1.9,0-3.5-.31-4.79-.92-1.29-.62-2.26-1.57-2.91-2.86s-.98-2.94-.98-4.96v-15.77h3.69v15.51c0,2.01.45,3.5,1.36,4.49.91.99,2.29,1.48,4.15,1.48s3.21-.34,4.27-1.01,1.83-1.67,2.3-2.98.7-2.92.7-4.82v-12.67h3.68Z"/>
          <path class="cls-1" d="M139.1,44.57c.6,0,1.21-.05,1.85-.15.63-.1,1.14-.23,1.54-.37v2.83c-.43.19-1.01.35-1.77.48-.76.13-1.49.2-2.21.2-1.27,0-2.43-.22-3.47-.67-1.04-.45-1.87-1.2-2.49-2.27-.62-1.07-.93-2.55-.93-4.44v-14.28h-3.43v-1.78l3.45-1.43,1.45-5.23h2.2v5.58h7.05v2.86h-7.05v14.17c0,1.51.35,2.64,1.04,3.38.69.75,1.62,1.12,2.78,1.12h0Z"/>
          <path class="cls-1" d="M168.11,35.04c0,1.98-.26,3.74-.77,5.29-.51,1.55-1.25,2.86-2.22,3.93s-2.13,1.88-3.5,2.45-2.92.85-4.65.85c-1.61,0-3.09-.28-4.43-.85-1.34-.56-2.5-1.38-3.47-2.45s-1.73-2.38-2.26-3.93-.8-3.32-.8-5.29c0-2.64.45-4.88,1.34-6.73.89-1.85,2.17-3.27,3.83-4.24s3.64-1.46,5.94-1.46,4.12.49,5.77,1.47c1.65.98,2.93,2.4,3.84,4.25s1.37,4.09,1.37,6.71h0ZM149.8,35.04c0,1.93.26,3.61.77,5.03.51,1.42,1.3,2.52,2.37,3.3,1.07.78,2.44,1.16,4.13,1.16s3.04-.39,4.12-1.16c1.08-.78,1.87-1.87,2.38-3.3.51-1.42.77-3.1.77-5.03s-.26-3.58-.77-4.98c-.51-1.4-1.3-2.48-2.37-3.24-1.07-.76-2.45-1.14-4.15-1.14-2.5,0-4.34.83-5.5,2.48-1.16,1.66-1.75,3.95-1.75,6.88h0Z"/>
          <path class="cls-1" d="M197.4,15l-11.53,32.11h-3.76l-11.53-32.11h3.91l7.51,21.15c.31.85.58,1.66.82,2.44s.46,1.52.65,2.24.36,1.41.51,2.09c.15-.67.31-1.37.5-2.1s.41-1.48.66-2.26.53-1.61.83-2.47l7.47-21.09h3.96Z"/>
          <path class="cls-1" d="M210.25,22.65c2.87,0,5,.64,6.39,1.93s2.09,3.35,2.09,6.17v16.36h-2.66l-.7-3.56h-.18c-.67.88-1.38,1.61-2.11,2.21-.73.59-1.58,1.04-2.54,1.34-.96.3-2.13.45-3.53.45s-2.76-.26-3.9-.77c-1.14-.51-2.03-1.29-2.68-2.33s-.98-2.36-.98-3.95c0-2.4.95-4.25,2.86-5.53s4.8-1.99,8.7-2.11l4.15-.18v-1.47c0-2.08-.45-3.54-1.34-4.37-.89-.83-2.15-1.25-3.78-1.25-1.26,0-2.46.18-3.6.55-1.14.37-2.23.8-3.25,1.3l-1.12-2.77c1.08-.56,2.33-1.03,3.73-1.43,1.41-.4,2.89-.59,4.44-.59h0ZM215.12,35.26l-3.67.15c-3,.12-5.12.61-6.35,1.47-1.23.86-1.85,2.09-1.85,3.67,0,1.38.42,2.39,1.25,3.05.84.66,1.94.99,3.32.99,2.14,0,3.89-.59,5.25-1.78s2.04-2.96,2.04-5.34v-2.22h.01Z"/>
          <path class="cls-1" d="M246.11,23.04v24.07h-2.99l-.53-3.38h-.2c-.5.84-1.14,1.54-1.93,2.11s-1.68,1-2.67,1.28c-.99.29-2.04.43-3.15.43-1.9,0-3.5-.31-4.79-.92-1.29-.62-2.26-1.57-2.91-2.86-.65-1.29-.98-2.94-.98-4.96v-15.77h3.69v15.51c0,2.01.45,3.5,1.36,4.49.91.99,2.29,1.48,4.15,1.48s3.21-.34,4.27-1.01,1.83-1.67,2.3-2.98.7-2.92.7-4.82v-12.67h3.68Z"/>
          <path class="cls-1" d="M257.49,47.12h-3.67V12.94h3.67v34.18Z"/>
          <path class="cls-1" d="M272.96,44.57c.6,0,1.21-.05,1.85-.15.63-.1,1.14-.23,1.54-.37v2.83c-.43.19-1.01.35-1.77.48-.76.13-1.49.2-2.21.2-1.27,0-2.43-.22-3.47-.67-1.04-.45-1.87-1.2-2.49-2.27s-.93-2.55-.93-4.44v-14.28h-3.43v-1.78l3.45-1.43,1.45-5.23h2.2v5.58h7.05v2.86h-7.05v14.17c0,1.51.35,2.64,1.04,3.38.69.75,1.62,1.12,2.78,1.12h-.01Z"/>
        </g>
        <g>
          <path class="cls-1" d="M285.02,22.87h-1.5v-11.48h-4.02v-1.31h9.53v1.31h-4.01v11.48Z"/>
          <path class="cls-1" d="M296.58,22.87l-4.3-11.32h-.07c.02.24.04.53.06.87s.03.72.04,1.12.02.82.02,1.24v8.08h-1.38v-12.79h2.2l4.05,10.64h.06l4.11-10.64h2.19v12.79h-1.47v-8.19c0-.38,0-.76.02-1.14.01-.38.03-.74.04-1.09.02-.34.04-.64.05-.89h-.07l-4.35,11.3h-1.22l.02.02Z"/>
        </g>
      </g>
      <g>
        <path class="cls-1" d="M41.06,0H15.76C7.07,0,0,7.07,0,15.76v25.31c0,8.69,7.07,15.76,15.76,15.76h25.31c8.69,0,15.76-7.07,15.76-15.76V15.76c0-8.69-7.07-15.76-15.76-15.76h0ZM55.37,41.06c0,7.89-6.42,14.3-14.3,14.3H15.76c-7.89,0-14.3-6.42-14.3-14.3V15.76c0-7.89,6.41-14.31,14.3-14.31h25.31c7.89,0,14.3,6.42,14.3,14.3v25.31Z"/>
        <path class="cls-1" d="M38.45,44.28c-.34.17-.71.26-1.08.26-.56,0-.96-.19-1.23-.57-.26-.37-.38-1-.38-1.85v-14.39c0-1.66-.14-3.08-.41-4.28-.28-1.19-.87-2.2-1.76-3.03-.45-.42-.98-.77-1.58-1.05.63-.55,1.19-1.12,1.66-1.71.26-.31.49-.61.69-.92.74-1.1,1.25-2.11,1.52-3.04.24-.8.36-1.57.36-2.27,0-.71-.27-1.42-.83-2.12-.5-.63-1.12-1.03-1.89-1.24-.77-.22-1.53,0-2.31.63-.68.54-1.07,1.17-1.19,1.91-.11.73.09,1.43.63,2.11.55.68,1.17,1.07,1.9,1.2.71.13,1.38.05,1.98-.26,0,.96-.28,1.84-.91,2.64-.61.8-1.25,1.47-1.93,2.02-.13.1-.27.2-.4.29-.15.11-.3.21-.45.31-.94-.28-2.07-.42-3.35-.42-1.56,0-2.94.19-4.17.57-.04,0-.06.01-.1.03-.87.27-1.62.59-2.27.93-.29.15-.56.32-.8.49-.03.01-.05.04-.08.06-.2.13-.38.28-.56.42-.41.34-.77.7-1.07,1.07-.45.55-.66,1.28-.66,2.17,0,.79.23,1.52.69,2.14.47.65,1.2.96,2.21.96.86,0,1.56-.24,2.12-.74.55-.5.83-1.19.83-2.04s-.24-1.57-.73-2.13c-.49-.55-1.06-.89-1.71-1.03.59-.75,1.37-1.25,2.36-1.49.97-.24,1.9-.37,2.76-.37.91,0,1.71.14,2.44.4s1.3.77,1.74,1.52c.42.77.64,1.86.64,3.32v3.2c0,.79-.36,1.43-1.06,1.91-.7.49-1.61.91-2.72,1.26-1.1.37-2.26.74-3.48,1.15-1.23.4-2.39.88-3.5,1.47-1.1.59-2,1.37-2.72,2.32-.7.97-1.06,2.21-1.06,3.73,0,1.28.27,2.4.8,3.37.54.96,1.33,1.71,2.36,2.25s2.26.8,3.66.8c1.62,0,3.08-.38,4.38-1.14,1.29-.77,2.4-1.91,3.33-3.47,0,1.03.17,1.89.5,2.57.32.66.82,1.17,1.47,1.52.66.34,1.48.52,2.49.52,1.1,0,1.98-.18,2.63-.55.66-.36,1.35-.82,2.08-1.37l-.57-.88c-.49.38-.89.65-1.24.83h-.03ZM31.1,40.25c-.79,1.3-1.67,2.28-2.65,2.95-.98.65-2.06.98-3.19.98-1.28,0-2.28-.42-3.03-1.25-.74-.82-1.11-1.93-1.11-3.31s.28-2.5.83-3.36c.55-.87,1.25-1.57,2.09-2.11.84-.52,1.74-1,2.67-1.39.93-.4,1.79-.79,2.58-1.19.8-.4,1.4-.89,1.81-1.48v10.15h0Z"/>
      </g>
    </g>
  </g>
</svg>