<?xml version="1.0" encoding="UTF-8"?>
<svg id="Layer_2" data-name="Layer 2" xmlns="http://www.w3.org/2000/svg" viewBox="0 0 188.01 56.83">
  <defs>
    <style>
      .cls-1 {
        fill: #25272c;
      }
    </style>
  </defs>
  <g id="Layer_1-2" data-name="Layer 1">
    <g>
      <g>
        <g>
          <path class="cls-1" d="M86.82,17.43c-1.77,0-3.36.3-4.78.91-1.42.61-2.61,1.49-3.6,2.64-.99,1.15-1.75,2.54-2.27,4.16-.53,1.63-.79,3.46-.79,5.49,0,2.7.42,5.03,1.26,7.02s2.1,3.52,3.78,4.6,3.78,1.62,6.29,1.62c1.43,0,2.79-.12,4.05-.36s2.5-.55,3.7-.91v3.25c-1.17.44-2.4.77-3.69.98-1.29.21-2.82.32-4.59.32-3.27,0-5.99-.68-8.18-2.03s-3.83-3.27-4.92-5.74-1.64-5.4-1.64-8.76c0-2.43.34-4.65,1.02-6.67.68-2.01,1.68-3.75,2.99-5.22,1.31-1.46,2.92-2.6,4.83-3.39,1.91-.8,4.11-1.2,6.58-1.2,1.63,0,3.19.16,4.7.48,1.51.32,2.87.78,4.08,1.38l-1.49,3.16c-1.02-.47-2.15-.88-3.37-1.22s-2.54-.52-3.97-.52h0Z"/>
          <path class="cls-1" d="M109.89,22.24c2.87,0,5,.64,6.39,1.93s2.09,3.35,2.09,6.17v16.36h-2.66l-.7-3.56h-.17c-.68.88-1.38,1.61-2.11,2.21-.73.59-1.58,1.04-2.54,1.34s-2.14.45-3.53.45c-1.46,0-2.76-.26-3.9-.77-1.14-.51-2.03-1.29-2.68-2.33-.65-1.04-.98-2.36-.98-3.95,0-2.4.95-4.25,2.86-5.53s4.8-1.99,8.7-2.11l4.15-.18v-1.47c0-2.08-.45-3.54-1.34-4.37s-2.15-1.25-3.78-1.25c-1.26,0-2.46.18-3.6.55s-2.23.8-3.25,1.3l-1.12-2.77c1.09-.56,2.33-1.03,3.74-1.43,1.4-.4,2.89-.59,4.44-.59h0ZM114.76,34.84l-3.67.15c-3,.12-5.12.61-6.35,1.47-1.23.86-1.85,2.09-1.85,3.67,0,1.38.42,2.39,1.25,3.05.83.66,1.94.99,3.32.99,2.14,0,3.89-.59,5.25-1.78s2.04-2.96,2.04-5.34v-2.22h0Z"/>
          <path class="cls-1" d="M136.81,22.19c.48,0,.99.03,1.52.08s1,.12,1.41.21l-.46,3.38c-.4-.1-.83-.18-1.32-.24-.48-.06-.94-.09-1.36-.09-.97,0-1.88.19-2.74.58-.86.39-1.61.94-2.25,1.67s-1.15,1.6-1.52,2.61c-.36,1.02-.55,2.15-.55,3.39v12.92h-3.67v-24.07h3.03l.4,4.44h.15c.5-.89,1.1-1.71,1.8-2.45s1.52-1.33,2.45-1.77,1.97-.66,3.11-.66h0Z"/>
          <path class="cls-1" d="M153.53,22.19c2.05,0,3.81.45,5.27,1.36,1.46.91,2.58,2.18,3.36,3.81s1.16,3.54,1.16,5.72v2.26h-16.63c.04,2.83.75,4.98,2.11,6.46,1.36,1.48,3.28,2.22,5.76,2.22,1.52,0,2.87-.14,4.04-.42s2.39-.69,3.65-1.23v3.21c-1.21.54-2.42.94-3.61,1.19s-2.6.37-4.23.37c-2.32,0-4.33-.47-6.05-1.42s-3.05-2.33-4.01-4.16c-.95-1.83-1.43-4.07-1.43-6.72s.44-4.84,1.31-6.73,2.1-3.36,3.69-4.38c1.59-1.02,3.46-1.54,5.61-1.54h0ZM153.49,25.18c-1.95,0-3.5.64-4.66,1.91s-1.85,3.05-2.06,5.34h12.74c-.02-1.43-.24-2.7-.67-3.79s-1.09-1.94-1.96-2.55c-.88-.61-2.01-.91-3.38-.91h0Z"/>
        </g>
        <g>
          <path class="cls-1" d="M169.46,22.46h-1.49v-11.48h-4.02v-1.31h9.53v1.31h-4.01v11.48h0Z"/>
          <path class="cls-1" d="M181.03,22.46l-4.3-11.32h-.07c.02.24.04.53.06.87s.03.72.04,1.12c0,.41.02.82.02,1.24v8.08h-1.38v-12.79h2.2l4.05,10.64h.06l4.11-10.64h2.19v12.79h-1.47v-8.19c0-.38,0-.76.02-1.14,0-.38.03-.74.04-1.09.02-.34.03-.64.05-.89h-.07l-4.35,11.3h-1.22l.02.02Z"/>
        </g>
      </g>
      <g>
        <path class="cls-1" d="M41.06,0H15.76C7.07,0,0,7.07,0,15.76v25.31c0,8.69,7.07,15.76,15.76,15.76h25.31c8.69,0,15.76-7.07,15.76-15.76V15.76c0-8.69-7.07-15.76-15.76-15.76h0ZM55.37,41.06c0,7.89-6.42,14.3-14.3,14.3H15.76c-7.89,0-14.3-6.42-14.3-14.3V15.75C1.46,7.86,7.88,1.45,15.76,1.45h25.31c7.89,0,14.3,6.42,14.3,14.3v25.31Z"/>
        <path class="cls-1" d="M38.45,44.28c-.34.17-.71.26-1.08.26-.56,0-.96-.19-1.23-.57-.26-.37-.38-1-.38-1.85v-14.39c0-1.66-.14-3.08-.41-4.28-.28-1.19-.87-2.2-1.76-3.03-.45-.42-.98-.77-1.58-1.05.63-.55,1.19-1.12,1.66-1.71.26-.31.49-.61.69-.92.74-1.1,1.25-2.11,1.52-3.04.24-.8.36-1.57.36-2.27,0-.71-.27-1.42-.83-2.12-.5-.63-1.12-1.03-1.89-1.24-.77-.22-1.53,0-2.31.63-.68.54-1.07,1.17-1.19,1.91-.11.73.09,1.43.63,2.11.55.68,1.17,1.07,1.9,1.2.71.13,1.38.05,1.98-.26,0,.96-.28,1.84-.91,2.64-.61.8-1.25,1.47-1.93,2.02-.13.1-.27.2-.4.29-.15.11-.3.21-.45.31-.94-.28-2.07-.42-3.35-.42-1.56,0-2.94.19-4.17.57-.04,0-.06.01-.1.03-.87.27-1.62.59-2.27.93-.29.15-.56.32-.8.49-.03.01-.05.04-.08.06-.2.13-.38.28-.56.42-.41.34-.77.7-1.07,1.07-.45.55-.66,1.28-.66,2.17,0,.79.23,1.52.69,2.14.47.65,1.2.96,2.21.96.86,0,1.56-.24,2.12-.74.55-.5.83-1.19.83-2.04s-.24-1.57-.73-2.13c-.49-.55-1.06-.89-1.71-1.03.59-.75,1.37-1.25,2.36-1.49.97-.24,1.9-.37,2.76-.37.91,0,1.71.14,2.44.4.73.26,1.3.77,1.74,1.52.42.77.64,1.86.64,3.32v3.2c0,.79-.36,1.43-1.06,1.91-.7.49-1.61.91-2.72,1.26-1.1.37-2.26.74-3.48,1.15-1.23.4-2.39.88-3.5,1.47-1.1.59-2,1.37-2.72,2.32-.7.97-1.06,2.21-1.06,3.73,0,1.28.27,2.4.8,3.37.54.96,1.33,1.71,2.36,2.25s2.26.8,3.66.8c1.62,0,3.08-.38,4.38-1.14,1.29-.77,2.4-1.91,3.33-3.47,0,1.03.17,1.89.5,2.57.32.66.82,1.17,1.47,1.52.66.34,1.48.52,2.49.52,1.1,0,1.98-.18,2.63-.55.66-.36,1.35-.82,2.08-1.37l-.57-.88c-.49.38-.89.65-1.24.83h-.03ZM31.1,40.25c-.79,1.3-1.67,2.28-2.65,2.95-.98.65-2.06.98-3.19.98-1.28,0-2.28-.42-3.03-1.25-.74-.82-1.11-1.93-1.11-3.31s.28-2.5.83-3.36c.55-.87,1.25-1.57,2.09-2.11.84-.52,1.74-1,2.67-1.39.93-.4,1.79-.79,2.58-1.19.8-.4,1.4-.89,1.81-1.48v10.15h0Z"/>
      </g>
    </g>
  </g>
</svg>