<?xml version="1.0" encoding="UTF-8"?>
<svg id="Layer_2" data-name="Layer 2" xmlns="http://www.w3.org/2000/svg" viewBox="0 0 191.84 56.83">
  <defs>
    <style>
      .cls-1 {
        fill: #25272c;
      }
    </style>
  </defs>
  <g id="Layer_1-2" data-name="Layer 1">
    <g>
      <g>
        <g>
          <path class="cls-1" d="M75.19,47.12h-3.73V15.01h17.88v3.29h-14.15v11.77h13.29v3.27h-13.29v13.77h0Z"/>
          <path class="cls-1" d="M97.79,47.12h-3.67V12.94h3.67v34.18Z"/>
          <path class="cls-1" d="M126.24,35.04c0,1.98-.26,3.74-.77,5.29s-1.25,2.86-2.22,3.93-2.13,1.88-3.5,2.45-2.92.85-4.65.85c-1.61,0-3.09-.28-4.43-.85-1.34-.56-2.5-1.38-3.47-2.45s-1.73-2.38-2.26-3.93-.8-3.32-.8-5.29c0-2.64.45-4.88,1.34-6.73.89-1.85,2.17-3.27,3.83-4.24s3.64-1.46,5.94-1.46,4.12.49,5.77,1.47,2.93,2.4,3.84,4.25c.91,1.85,1.37,4.09,1.37,6.71h0ZM107.92,35.04c0,1.93.26,3.61.77,5.03s1.3,2.52,2.37,3.3,2.44,1.16,4.13,1.16,3.04-.39,4.12-1.16c1.08-.78,1.87-1.87,2.38-3.3.51-1.42.77-3.1.77-5.03s-.26-3.58-.77-4.98-1.3-2.48-2.37-3.24-2.45-1.14-4.15-1.14c-2.5,0-4.34.83-5.5,2.48-1.16,1.66-1.75,3.95-1.75,6.88Z"/>
          <path class="cls-1" d="M152.13,47.08l-4.28-14.01c-.19-.6-.37-1.19-.54-1.77s-.32-1.14-.46-1.67-.26-1.03-.37-1.49-.2-.86-.27-1.2h-.15c-.06.34-.14.74-.24,1.2-.1.46-.22.96-.36,1.5s-.29,1.11-.45,1.7-.34,1.19-.55,1.79l-4.48,13.95h-4.11l-6.63-24.07h3.78l3.47,13.29c.23.88.46,1.75.67,2.6s.4,1.66.55,2.42c.15.75.27,1.41.34,1.97h.18c.09-.37.19-.81.3-1.32s.23-1.06.37-1.64c.14-.58.29-1.16.45-1.74.16-.58.32-1.12.48-1.64l4.44-13.95h3.93l4.28,13.93c.22.7.44,1.43.65,2.2.21.76.41,1.5.58,2.21s.3,1.34.37,1.9h.18c.06-.5.17-1.11.33-1.85s.35-1.54.56-2.42.44-1.77.67-2.68l3.52-13.29h3.71l-6.66,24.07h-4.26Z"/>
        </g>
        <g>
          <path class="cls-1" d="M173.3,22.87h-1.5v-11.48h-4.02v-1.31h9.53v1.31h-4.01v11.48Z"/>
          <path class="cls-1" d="M184.86,22.87l-4.3-11.32h-.07c.02.24.04.53.06.87s.03.72.04,1.12.02.82.02,1.24v8.08h-1.38v-12.79h2.2l4.05,10.64h.06l4.11-10.64h2.19v12.79h-1.47v-8.19c0-.38,0-.76.02-1.14.01-.38.03-.74.04-1.09.02-.34.04-.64.05-.89h-.07l-4.35,11.3h-1.22l.02.02Z"/>
        </g>
      </g>
      <g>
        <path class="cls-1" d="M41.07,0H15.76C7.07,0,0,7.07,0,15.76v25.31c0,8.69,7.07,15.76,15.76,15.76h25.31c8.69,0,15.76-7.07,15.76-15.76V15.76c0-8.69-7.07-15.76-15.76-15.76ZM55.38,41.06c0,7.89-6.42,14.3-14.3,14.3H15.77c-7.89,0-14.3-6.42-14.3-14.3V15.76C1.47,7.87,7.89,1.46,15.77,1.46h25.31c7.89,0,14.3,6.42,14.3,14.3v25.31h0Z"/>
        <path class="cls-1" d="M38.46,44.28c-.34.17-.71.26-1.08.26-.56,0-.96-.19-1.23-.57-.26-.37-.38-1-.38-1.85v-14.39c0-1.66-.14-3.08-.41-4.28-.28-1.19-.87-2.2-1.76-3.03-.45-.42-.98-.77-1.58-1.05.63-.55,1.19-1.12,1.66-1.71.26-.31.49-.61.69-.92.74-1.1,1.25-2.11,1.52-3.04.24-.8.36-1.57.36-2.27.01-.71-.27-1.42-.83-2.12-.5-.63-1.12-1.03-1.89-1.24-.77-.22-1.53,0-2.31.63-.68.54-1.07,1.17-1.19,1.91-.11.73.09,1.43.63,2.11.55.68,1.17,1.07,1.9,1.2.71.13,1.38.05,1.98-.26.01.96-.28,1.84-.91,2.64-.61.8-1.25,1.47-1.93,2.02-.13.1-.27.2-.4.29-.15.11-.3.21-.45.31-.94-.28-2.07-.42-3.35-.42-1.56,0-2.94.19-4.17.57-.04,0-.06.01-.1.03-.87.27-1.62.59-2.27.93-.29.15-.56.32-.8.49-.03.01-.05.04-.08.06-.2.13-.38.28-.56.42-.41.34-.77.7-1.07,1.07-.45.55-.66,1.28-.66,2.17,0,.79.23,1.52.69,2.14.47.65,1.2.96,2.21.96.86,0,1.56-.24,2.12-.74.55-.5.83-1.19.83-2.04s-.24-1.57-.73-2.13c-.49-.55-1.06-.89-1.71-1.03.59-.75,1.37-1.25,2.36-1.49.97-.24,1.9-.37,2.76-.37.91,0,1.71.14,2.44.4s1.3.77,1.74,1.52c.42.77.64,1.86.64,3.32v3.2c0,.79-.36,1.43-1.06,1.91-.7.49-1.61.91-2.72,1.26-1.1.37-2.26.74-3.48,1.15-1.23.4-2.39.88-3.5,1.47-1.1.59-2,1.37-2.72,2.32-.7.97-1.06,2.21-1.06,3.73,0,1.28.27,2.4.8,3.37.54.96,1.33,1.71,2.36,2.25,1.03.54,2.26.8,3.66.8,1.62,0,3.08-.38,4.38-1.14,1.29-.77,2.4-1.91,3.33-3.47,0,1.03.17,1.89.5,2.57.32.66.82,1.17,1.47,1.52.66.34,1.48.52,2.49.52,1.1,0,1.98-.18,2.63-.55.66-.36,1.35-.82,2.08-1.37l-.57-.88c-.49.38-.89.65-1.24.83h-.03ZM31.11,40.25c-.79,1.3-1.67,2.28-2.65,2.95-.98.65-2.06.98-3.19.98-1.28,0-2.28-.42-3.03-1.25-.74-.82-1.11-1.93-1.11-3.31s.28-2.5.83-3.36c.55-.87,1.25-1.57,2.09-2.11.84-.52,1.74-1,2.67-1.39.93-.4,1.79-.79,2.58-1.19.8-.4,1.4-.89,1.81-1.48v10.15h0Z"/>
      </g>
    </g>
  </g>
</svg>