<?xml version="1.0" encoding="UTF-8"?>
<svg id="Layer_2" data-name="Layer 2" xmlns="http://www.w3.org/2000/svg" viewBox="0 0 192.37 56.83">
  <defs>
    <style>
      .cls-1 {
        fill: #25272c;
      }
    </style>
  </defs>
  <g id="Layer_1-2" data-name="Layer 1">
    <g>
      <g>
        <g>
          <path class="cls-1" d="M91.66,38.57c0,1.9-.47,3.53-1.42,4.87s-2.27,2.36-3.97,3.06-3.7,1.05-6,1.05c-1.22,0-2.37-.06-3.45-.18s-2.08-.29-2.99-.51-1.71-.49-2.39-.81v-3.58c1.1.45,2.44.88,4.02,1.26,1.58.39,3.24.58,4.96.58,1.61,0,2.97-.22,4.09-.65s1.96-1.05,2.54-1.87c.58-.81.87-1.79.87-2.93s-.24-2.02-.72-2.76c-.48-.74-1.28-1.41-2.41-2.02-1.12-.61-2.65-1.26-4.58-1.94-1.36-.48-2.56-1.01-3.6-1.59s-1.91-1.23-2.61-1.97c-.7-.73-1.23-1.58-1.59-2.55s-.54-2.07-.54-3.32c0-1.71.44-3.18,1.31-4.4s2.08-2.16,3.62-2.81,3.32-.98,5.33-.98c1.71,0,3.3.16,4.76.48s2.79.76,4.01,1.3l-1.16,3.21c-1.16-.48-2.38-.89-3.68-1.21s-2.63-.48-4.01-.48-2.54.2-3.48.6-1.67.97-2.16,1.7-.75,1.6-.75,2.61c0,1.13.24,2.06.71,2.81.48.75,1.24,1.41,2.28,1.99s2.43,1.18,4.16,1.81c1.89.69,3.49,1.42,4.81,2.18,1.32.77,2.32,1.71,3.01,2.81.69,1.11,1.03,2.51,1.03,4.21v.03Z"/>
          <path class="cls-1" d="M101.3,12.94v10.21c0,.59-.01,1.18-.04,1.77s-.08,1.14-.15,1.64h.24c.5-.85,1.13-1.56,1.9-2.14s1.64-1.02,2.63-1.32c.98-.3,2.02-.45,3.12-.45,1.93,0,3.55.31,4.84.92,1.29.62,2.27,1.57,2.92,2.86s.98,2.96.98,5.01v15.68h-3.6v-15.44c0-2.01-.46-3.51-1.37-4.5-.91-1-2.32-1.49-4.21-1.49-1.79,0-3.21.34-4.27,1.02s-1.82,1.68-2.28,3c-.46,1.32-.69,2.93-.69,4.83v12.59h-3.65V12.94h3.65-.02Z"/>
          <path class="cls-1" d="M127.11,14.04c.6,0,1.12.19,1.55.58s.65.99.65,1.81-.22,1.41-.65,1.8c-.43.4-.95.59-1.55.59s-1.15-.2-1.57-.59-.63-1-.63-1.8.21-1.42.63-1.81.94-.58,1.57-.58ZM128.89,23.04v24.07h-3.65v-24.07h3.65Z"/>
          <path class="cls-1" d="M147.32,25.9h-6v21.22h-3.65v-21.22h-4.26v-1.76l4.26-1.21v-1.6c0-2.02.3-3.66.9-4.93s1.47-2.2,2.61-2.8,2.53-.9,4.17-.9c.92,0,1.77.08,2.54.24s1.45.34,2.03.55l-.95,2.88c-.5-.16-1.06-.31-1.68-.45s-1.26-.21-1.9-.21c-1.39,0-2.42.45-3.09,1.35-.67.9-1,2.31-1,4.23v1.76h6v2.86h.02Z"/>
          <path class="cls-1" d="M159.51,44.57c.6,0,1.21-.05,1.85-.15.63-.1,1.14-.23,1.54-.37v2.83c-.43.19-1.01.35-1.77.48s-1.49.2-2.21.2c-1.27,0-2.43-.22-3.47-.67-1.04-.45-1.87-1.2-2.49-2.27s-.93-2.55-.93-4.44v-14.28h-3.43v-1.78l3.45-1.43,1.45-5.23h2.2v5.58h7.05v2.86h-7.05v14.17c0,1.51.35,2.64,1.04,3.38.69.75,1.62,1.12,2.78,1.12h0Z"/>
        </g>
        <g>
          <path class="cls-1" d="M173.82,22.87h-1.5v-11.48h-4.02v-1.31h9.53v1.31h-4.01v11.48Z"/>
          <path class="cls-1" d="M185.39,22.87l-4.3-11.32h-.07c.02.24.04.53.06.87s.03.72.04,1.12.02.82.02,1.24v8.08h-1.38v-12.79h2.2l4.05,10.64h.06l4.11-10.64h2.19v12.79h-1.47v-8.19c0-.38,0-.76.02-1.14.01-.38.03-.74.04-1.09.02-.34.04-.64.05-.89h-.07l-4.35,11.3h-1.22l.02.02Z"/>
        </g>
      </g>
      <g>
        <path class="cls-1" d="M41.07,0H15.76C7.07,0,0,7.07,0,15.76v25.31c0,8.69,7.07,15.76,15.76,15.76h25.31c8.69,0,15.76-7.07,15.76-15.76V15.76c0-8.69-7.07-15.76-15.76-15.76ZM55.38,41.06c0,7.89-6.42,14.3-14.3,14.3H15.77c-7.89,0-14.3-6.42-14.3-14.3V15.76C1.47,7.87,7.89,1.46,15.77,1.46h25.31c7.89,0,14.3,6.42,14.3,14.3v25.31h0Z"/>
        <path class="cls-1" d="M38.46,44.28c-.34.17-.71.26-1.08.26-.56,0-.96-.19-1.23-.57-.26-.37-.38-1-.38-1.85v-14.39c0-1.66-.14-3.08-.41-4.28-.28-1.19-.87-2.2-1.76-3.03-.45-.42-.98-.77-1.58-1.05.63-.55,1.19-1.12,1.66-1.71.26-.31.49-.61.69-.92.74-1.1,1.25-2.11,1.52-3.04.24-.8.36-1.57.36-2.27.01-.71-.27-1.42-.83-2.12-.5-.63-1.12-1.03-1.89-1.24-.77-.22-1.53,0-2.31.63-.68.54-1.07,1.17-1.19,1.91-.11.73.09,1.43.63,2.11.55.68,1.17,1.07,1.9,1.2.71.13,1.38.05,1.98-.26.01.96-.28,1.84-.91,2.64-.61.8-1.25,1.47-1.93,2.02-.13.1-.27.2-.4.29-.15.11-.3.21-.45.31-.94-.28-2.07-.42-3.35-.42-1.56,0-2.94.19-4.17.57-.04,0-.06.01-.1.03-.87.27-1.62.59-2.27.93-.29.15-.56.32-.8.49-.03.01-.05.04-.08.06-.2.13-.38.28-.56.42-.41.34-.77.7-1.07,1.07-.45.55-.66,1.28-.66,2.17,0,.79.23,1.52.69,2.14.47.65,1.2.96,2.21.96.86,0,1.56-.24,2.12-.74.55-.5.83-1.19.83-2.04s-.24-1.57-.73-2.13c-.49-.55-1.06-.89-1.71-1.03.59-.75,1.37-1.25,2.36-1.49.97-.24,1.9-.37,2.76-.37.91,0,1.71.14,2.44.4s1.3.77,1.74,1.52c.42.77.64,1.86.64,3.32v3.2c0,.79-.36,1.43-1.06,1.91-.7.49-1.61.91-2.72,1.26-1.1.37-2.26.74-3.48,1.15-1.23.4-2.39.88-3.5,1.47-1.1.59-2,1.37-2.72,2.32-.7.97-1.06,2.21-1.06,3.73,0,1.28.27,2.4.8,3.37.54.96,1.33,1.71,2.36,2.25,1.03.54,2.26.8,3.66.8,1.62,0,3.08-.38,4.38-1.14,1.29-.77,2.4-1.91,3.33-3.47,0,1.03.17,1.89.5,2.57.32.66.82,1.17,1.47,1.52.66.34,1.48.52,2.49.52,1.1,0,1.98-.18,2.63-.55.66-.36,1.35-.82,2.08-1.37l-.57-.88c-.49.38-.89.65-1.24.83h-.03ZM31.11,40.25c-.79,1.3-1.67,2.28-2.65,2.95-.98.65-2.06.98-3.19.98-1.28,0-2.28-.42-3.03-1.25-.74-.82-1.11-1.93-1.11-3.31s.28-2.5.83-3.36c.55-.87,1.25-1.57,2.09-2.11.84-.52,1.74-1,2.67-1.39.93-.4,1.79-.79,2.58-1.19.8-.4,1.4-.89,1.81-1.48v10.15h0Z"/>
      </g>
    </g>
  </g>
</svg>