<?xml version="1.0" encoding="UTF-8"?>
<svg id="Layer_2" data-name="Layer 2" xmlns="http://www.w3.org/2000/svg" viewBox="0 0 184.25 57.51">
  <defs>
    <style>
      .cls-1 {
        fill: #25272c;
      }
    </style>
  </defs>
  <g id="Layer_1-2" data-name="Layer 1">
    <g>
      <g>
        <g>
          <path class="cls-1" d="M98.27,14.59l-11.53,32.11h-3.76l-11.53-32.11h3.91l7.51,21.15c.31.85.58,1.66.82,2.44s.46,1.52.65,2.24.36,1.41.51,2.09c.15-.67.31-1.37.5-2.1.19-.73.41-1.48.66-2.26s.53-1.61.83-2.47l7.47-21.09h3.96Z"/>
          <path class="cls-1" d="M103.98,13.63c.6,0,1.12.19,1.55.58s.65.99.65,1.81-.22,1.41-.65,1.8c-.43.4-.95.59-1.55.59s-1.15-.2-1.57-.59-.63-1-.63-1.8.21-1.42.63-1.81.94-.58,1.57-.58ZM105.76,22.63v24.07h-3.65v-24.07h3.65Z"/>
          <path class="cls-1" d="M120.19,57.51c-3.16,0-5.6-.59-7.31-1.77s-2.57-2.83-2.57-4.95c0-1.51.48-2.8,1.44-3.87.96-1.07,2.29-1.78,3.99-2.13-.63-.29-1.17-.73-1.61-1.32-.45-.59-.67-1.26-.67-2.02,0-.88.25-1.65.74-2.32.49-.67,1.24-1.31,2.25-1.92-1.26-.51-2.28-1.38-3.06-2.6s-1.17-2.65-1.17-4.27c0-1.73.36-3.2,1.08-4.43.72-1.22,1.76-2.16,3.12-2.8s3.01-.97,4.94-.97c.43,0,.85.02,1.29.06.43.04.84.09,1.24.15.39.07.74.14,1.03.23h8.26v2.35l-4.44.55c.44.57.81,1.26,1.1,2.07s.44,1.7.44,2.68c0,2.4-.81,4.31-2.44,5.72-1.62,1.41-3.86,2.12-6.7,2.12-.67,0-1.36-.06-2.06-.18-.72.4-1.26.84-1.64,1.32s-.56,1.04-.56,1.67c0,.47.14.84.43,1.12s.7.48,1.24.6c.54.12,1.19.19,1.95.19h4.24c2.62,0,4.63.55,6.03,1.65,1.4,1.1,2.1,2.7,2.1,4.81,0,2.67-1.08,4.71-3.25,6.13s-5.3,2.13-9.4,2.13h-.03ZM120.3,54.66c1.99,0,3.64-.2,4.95-.6,1.31-.4,2.29-.98,2.94-1.73.65-.76.98-1.65.98-2.69,0-.97-.22-1.69-.66-2.19-.44-.49-1.08-.82-1.93-.99-.85-.17-1.89-.25-3.12-.25h-4.17c-1.08,0-2.03.17-2.83.51s-1.42.83-1.86,1.49c-.43.66-.65,1.48-.65,2.46,0,1.3.55,2.3,1.65,2.98s2.67,1.02,4.7,1.02h0ZM121.25,35.42c1.74,0,3.05-.44,3.93-1.32s1.32-2.16,1.32-3.84c0-1.8-.45-3.15-1.34-4.05-.89-.9-2.21-1.35-3.95-1.35s-2.95.46-3.85,1.4c-.9.93-1.35,2.29-1.35,4.07,0,1.64.45,2.9,1.36,3.78s2.2,1.32,3.89,1.32h-.01Z"/>
          <path class="cls-1" d="M139.77,13.63c.6,0,1.12.19,1.55.58s.65.99.65,1.81-.22,1.41-.65,1.8c-.43.4-.95.59-1.55.59s-1.15-.2-1.57-.59-.63-1-.63-1.8.21-1.42.63-1.81.94-.58,1.57-.58ZM141.54,22.63v24.07h-3.65v-24.07h3.65Z"/>
          <path class="cls-1" d="M152.92,46.71h-3.67V12.53h3.67v34.18Z"/>
        </g>
        <g>
          <path class="cls-1" d="M165.71,22.46h-1.5v-11.48h-4.02v-1.31h9.53v1.31h-4.01v11.48Z"/>
          <path class="cls-1" d="M177.27,22.46l-4.3-11.32h-.07c.02.24.04.53.06.87s.03.72.04,1.12.02.82.02,1.24v8.08h-1.38v-12.79h2.2l4.05,10.64h.06l4.11-10.64h2.19v12.79h-1.47v-8.19c0-.38,0-.76.02-1.14.01-.38.03-.74.04-1.09.02-.34.04-.64.05-.89h-.07l-4.35,11.3h-1.22l.02.02Z"/>
        </g>
      </g>
      <g>
        <path class="cls-1" d="M41.07,0H15.76C7.07,0,0,7.07,0,15.76v25.31c0,8.69,7.07,15.76,15.76,15.76h25.31c8.69,0,15.76-7.07,15.76-15.76V15.76c0-8.69-7.07-15.76-15.76-15.76ZM55.38,41.07c0,7.89-6.42,14.3-14.3,14.3H15.77c-7.89,0-14.3-6.42-14.3-14.3V15.76C1.47,7.87,7.89,1.46,15.77,1.46h25.31c7.89,0,14.3,6.42,14.3,14.3v25.31Z"/>
        <path class="cls-1" d="M38.46,44.28c-.34.17-.71.26-1.08.26-.56,0-.96-.19-1.23-.57-.26-.37-.38-1-.38-1.85v-14.39c0-1.66-.14-3.08-.41-4.28-.28-1.19-.87-2.2-1.76-3.03-.45-.42-.98-.77-1.58-1.05.63-.55,1.19-1.12,1.66-1.71.26-.31.49-.61.69-.92.74-1.1,1.25-2.11,1.52-3.04.24-.8.36-1.57.36-2.27.01-.71-.27-1.42-.83-2.12-.5-.63-1.12-1.03-1.89-1.24-.77-.22-1.53,0-2.31.63-.68.54-1.07,1.17-1.19,1.91-.11.73.09,1.43.63,2.11.55.68,1.17,1.07,1.9,1.2.71.13,1.38.05,1.98-.26.01.96-.28,1.84-.91,2.64-.61.8-1.25,1.47-1.93,2.02-.13.1-.27.2-.4.29-.15.11-.3.21-.45.31-.94-.28-2.07-.42-3.35-.42-1.56,0-2.94.19-4.17.57-.04,0-.06,0-.1.03-.87.27-1.62.59-2.27.93-.29.15-.56.32-.8.49-.03,0-.05.04-.08.06-.2.13-.38.28-.56.42-.41.34-.77.7-1.07,1.07-.45.55-.66,1.28-.66,2.17,0,.79.23,1.52.69,2.14.47.65,1.2.96,2.21.96.86,0,1.56-.24,2.12-.74.55-.5.83-1.19.83-2.04s-.24-1.57-.73-2.13c-.49-.55-1.06-.89-1.71-1.03.59-.75,1.37-1.25,2.36-1.49.97-.24,1.9-.37,2.76-.37.91,0,1.71.14,2.44.4s1.3.77,1.74,1.52c.42.77.64,1.86.64,3.32v3.2c0,.79-.36,1.43-1.06,1.91-.7.49-1.61.91-2.72,1.26-1.1.37-2.26.74-3.48,1.15-1.23.4-2.39.88-3.5,1.47-1.1.59-2,1.37-2.72,2.32-.7.97-1.06,2.21-1.06,3.73,0,1.28.27,2.4.8,3.37.54.96,1.33,1.71,2.36,2.25,1.03.54,2.26.8,3.66.8,1.62,0,3.08-.38,4.38-1.14,1.29-.77,2.4-1.91,3.33-3.47,0,1.03.17,1.89.5,2.57.32.66.82,1.17,1.47,1.52.66.34,1.48.52,2.49.52,1.1,0,1.98-.18,2.63-.55.66-.36,1.35-.82,2.08-1.37l-.57-.88c-.49.38-.89.65-1.24.83h-.03ZM31.11,40.25c-.79,1.3-1.67,2.28-2.65,2.95-.98.65-2.06.98-3.19.98-1.28,0-2.28-.42-3.03-1.25-.74-.82-1.11-1.93-1.11-3.31s.28-2.5.83-3.36c.55-.87,1.25-1.57,2.09-2.11.84-.52,1.74-1,2.67-1.39.93-.4,1.79-.79,2.58-1.19.8-.4,1.4-.89,1.81-1.48v10.15h0Z"/>
      </g>
    </g>
  </g>
</svg>