<?xml version="1.0" encoding="UTF-8"?>
<svg id="Layer_2" data-name="Layer 2" xmlns="http://www.w3.org/2000/svg" viewBox="0 0 871.01 263.96">
  <defs>
    <style>
      .cls-1 {
        fill: #1c202c;
      }
    </style>
  </defs>
  <g id="Layer_1-2" data-name="Layer 1">
    <g>
      <path class="cls-1" d="M640.11,216.99c-3.75,8.16-8.16,14.67-13.23,19.52-5.08,4.86-10.58,8.32-16.54,10.42-5.95,2.1-12.23,3.14-18.86,3.14-8.38,0-16.48-2.81-24.31-8.43-7.83-5.63-14.17-13.84-19.02-24.64-4.85-10.8-7.28-23.7-7.28-38.7,0-3.97.1-7.94.33-11.91.18-3.32.45-6.4.79-9.26h103.4c0-24.92-5.46-43.27-16.37-55.07-10.92-11.8-26.08-17.7-45.49-17.7-14.99,0-28.11,3.81-39.36,11.41s-19.97,18.42-26.13,32.42c-3.15,7.13-5.48,14.97-7.03,23.5h-25.04V0c-4.85,1.55-10.21,2.71-16.04,3.48-5.85.78-11.96,1.16-18.36,1.16s-13.45-.33-20.51-1v6.95c9.7,0,16.32,2.37,19.85,7.11,3.53,4.75,5.29,12.07,5.29,22v63.79c-3.09-5.3-7.22-9.37-12.4-12.2-8.49-4.63-17.59-6.95-27.29-6.95-13.23,0-25.53,3.31-36.88,9.92-11.36,6.62-20.51,16.6-27.45,29.94-4.14,7.96-7.04,17.12-8.71,27.47h-50v-66.34c-4.85,1.55-10.21,2.71-16.04,3.48-5.85.77-11.96,1.16-18.36,1.16s-13.45-.33-20.51-.99v6.95c9.7,0,16.32,2.38,19.85,7.11,3.53,4.75,5.29,12.07,5.29,22v68.47c0,11.25-1.93,21.39-5.79,30.43-3.86,9.04-9.15,16.21-15.88,21.5-6.73,5.29-14.39,7.94-22.99,7.94-7.94,0-13.68-1.76-17.2-5.29-3.53-3.52-5.74-8.15-6.62-13.89-.88-5.73-1.32-12.02-1.32-18.85V85.34c-4.85,1.55-10.21,2.71-16.04,3.48-5.85.77-11.96,1.16-18.36,1.16s-13.45-.33-20.51-.99v6.95c9.7,0,16.32,2.38,19.85,7.11,3.53,4.75,5.29,12.07,5.29,22v83.02c0,10.37.77,19.08,2.32,26.13,1.54,7.06,4.41,12.79,8.6,17.2,3.75,3.97,8.49,7.06,14.23,9.26,5.73,2.2,12.45,3.31,20.18,3.31,10.58,0,20.89-3.04,30.93-9.09,10.03-6.07,17.8-16.26,23.32-30.6v39.03c4.85-1.77,10.2-2.97,16.04-3.63,5.84-.67,11.96-1,18.36-1,6.83,0,13.67.33,20.51,1v-6.95c-9.48,0-16.04-2.37-19.68-7.11-3.64-4.74-5.46-12.07-5.46-22v-66.49h49.24c-.63,5.43-.95,11.16-.95,17.2,0,20.07,2.7,36.72,8.11,49.95,5.4,13.23,13.23,23.15,23.48,29.77s22.21,9.92,35.89,9.92c15.22,0,27.29-4.52,36.22-13.57,4.49-4.54,8.07-10.06,10.75-16.55v29.13c4.85-1.77,10.2-2.98,16.04-3.64,5.84-.66,11.96-1,18.36-1,6.83,0,13.67.33,20.51,1v-6.95c-9.48,0-16.04-2.37-19.68-7.11-3.64-4.73-5.46-12.07-5.46-21.99v-66.16h24.18c-.91,6.66-1.37,13.71-1.37,21.17,0,16.76,3.03,31.59,9.09,44.49,6.07,12.9,14.78,22.99,26.13,30.26,11.36,7.28,24.97,10.92,40.85,10.92,11.03,0,20.73-2.15,29.12-6.45,8.38-4.3,15.32-9.87,20.83-16.71,5.51-6.83,9.48-13.89,11.91-21.17l-6.62-2.65ZM443.97,242.13c-7.5,7.94-15.88,11.91-25.14,11.91s-17.92-2.92-24.64-8.77c-6.73-5.83-11.8-14.66-15.22-26.46-3.42-11.79-5.13-26.63-5.13-44.49-.22-28,4.02-48.73,12.74-62.18,8.71-13.45,19.57-20.18,32.58-20.18,8.82,0,16.48,2.1,22.99,6.28,6.28,4.05,10.96,10.47,14.06,19.24v98.56c-2.2,11.07-6.27,19.77-12.24,26.09ZM555.27,105.85c7.83-10.14,16.82-15.22,26.96-15.22,7.5,0,13.61,2.76,18.36,8.27,4.73,5.52,8.21,12.85,10.42,22,2.2,9.15,3.08,19.13,2.65,29.94h-72.18c1.76-20.35,6.37-35.36,13.79-44.99Z"/>
      <path class="cls-1" d="M698.65,228.57V0c-4.85,1.55-10.2,2.71-16.04,3.48-5.84.78-11.96,1.16-18.36,1.16s-13.45-.33-20.51-1v6.95c9.7,0,16.32,2.37,19.85,7.11,3.52,4.75,5.29,12.07,5.29,22v188.88c0,9.26-1.93,15.55-5.79,18.85-3.87,3.31-10.31,4.96-19.35,4.96v6.95c3.75-.22,9.48-.49,17.2-.83,7.72-.33,15.33-.49,22.83-.49s15.38.17,22.99.49c7.61.33,13.29.61,17.03.83v-6.95c-9.04,0-15.49-1.65-19.34-4.96-3.87-3.31-5.79-9.6-5.79-18.85Z"/>
      <path class="cls-1" d="M867.34,243.79c-3.1,2.45-5.71,4.16-7.92,5.3-2.2,1.06-4.57,1.63-6.94,1.63-3.59,0-6.12-1.22-7.83-3.67-1.63-2.37-2.45-6.37-2.45-11.83v-91.98c0-10.61-.9-19.67-2.61-27.34-1.8-7.59-5.55-14.04-11.26-19.34-2.88-2.66-6.23-4.9-10.1-6.73,4.06-3.54,7.6-7.15,10.6-10.9,1.63-1.96,3.1-3.92,4.41-5.88,4.73-7.02,8-13.47,9.71-19.42,1.55-5.14,2.28-10.04,2.28-14.53.08-4.57-1.71-9.06-5.3-13.55-3.18-4-7.18-6.61-12.08-7.92-4.9-1.39-9.79,0-14.77,4-4.33,3.43-6.86,7.51-7.59,12.24-.73,4.65.57,9.14,4,13.47,3.51,4.33,7.51,6.86,12.16,7.67,4.57.82,8.81.33,12.65-1.63.08,6.12-1.8,11.75-5.79,16.89-3.92,5.14-8,9.39-12.32,12.9-.82.65-1.71,1.31-2.53,1.88-.96.71-1.93,1.36-2.89,1.95-6.04-1.78-13.22-2.68-21.44-2.68-9.96,0-18.77,1.22-26.69,3.67-.24,0-.41.08-.65.16-5.55,1.71-10.37,3.75-14.53,5.96-1.88.98-3.59,2.04-5.14,3.1-.16.08-.33.24-.49.41-1.31.82-2.45,1.8-3.59,2.69-2.61,2.2-4.9,4.49-6.86,6.86-2.86,3.51-4.24,8.16-4.24,13.87,0,5.06,1.47,9.71,4.41,13.71,3.02,4.16,7.67,6.12,14.12,6.12,5.47,0,9.96-1.55,13.55-4.73,3.51-3.18,5.31-7.59,5.31-13.06s-1.55-10.04-4.65-13.63c-3.1-3.51-6.77-5.71-10.94-6.61,3.75-4.82,8.73-8,15.1-9.55,6.2-1.55,12.16-2.37,17.63-2.37,5.79,0,10.94.9,15.59,2.53,4.65,1.63,8.32,4.9,11.1,9.71,2.69,4.9,4.08,11.92,4.08,21.22v20.49c0,5.06-2.29,9.14-6.77,12.24-4.49,3.1-10.28,5.79-17.38,8.08-7.02,2.37-14.45,4.73-22.28,7.35-7.84,2.53-15.26,5.63-22.36,9.39-7.02,3.75-12.81,8.73-17.38,14.85-4.49,6.2-6.77,14.12-6.77,23.83,0,8.16,1.71,15.34,5.14,21.55,3.43,6.12,8.49,10.94,15.1,14.36,6.61,3.43,14.45,5.14,23.42,5.14,10.36,0,19.67-2.45,27.99-7.26,8.24-4.9,15.34-12.24,21.3-22.2,0,6.61,1.06,12.08,3.18,16.4,2.04,4.24,5.22,7.51,9.39,9.71,4.24,2.2,9.47,3.35,15.92,3.35,7.02,0,12.65-1.14,16.81-3.51,4.24-2.28,8.65-5.22,13.3-8.73l-3.67-5.63ZM812.41,223.31c-5.06,8.32-10.69,14.61-16.98,18.85-6.28,4.16-13.14,6.28-20.4,6.28-8.16,0-14.61-2.69-19.34-8-4.73-5.22-7.1-12.32-7.1-21.14s1.8-16,5.31-21.46c3.51-5.55,8-10.04,13.39-13.47,5.39-3.35,11.1-6.37,17.06-8.9,5.96-2.53,11.43-5.06,16.49-7.59,5.14-2.53,8.98-5.71,11.59-9.47v64.88Z"/>
      <path class="cls-1" d="M141.54,249.78c-2.23,1.12-4.57,1.67-7.03,1.67-3.57,0-6.19-1.22-7.86-3.67-1.67-2.45-2.51-6.47-2.51-12.05v-93.02c0-10.71-.89-19.91-2.68-27.61-1.79-7.7-5.58-14.22-11.38-19.57-4.24-4.02-9.59-7.08-16.06-9.21-6.47-2.11-14.28-3.18-23.42-3.18-10.26,0-19.47,1.29-27.6,3.85-8.15,2.57-14.78,5.63-19.91,9.21-4.47,3.12-8.15,6.47-11.04,10.03-2.91,3.57-4.35,8.26-4.35,14.06,0,5.13,1.51,9.76,4.52,13.88,3.01,4.13,7.75,6.19,14.22,6.19,5.58,0,10.15-1.62,13.72-4.85,3.57-3.23,5.35-7.64,5.35-13.21s-1.56-10.15-4.68-13.72c-3.13-3.56-6.81-5.79-11.04-6.69,3.79-4.91,8.87-8.15,15.22-9.71,6.36-1.55,12.33-2.34,17.91-2.34s11.04.84,15.73,2.51c4.69,1.67,8.42,4.97,11.21,9.88,2.79,4.91,4.18,12.04,4.18,21.42v20.75c0,5.13-2.29,9.25-6.86,12.38-4.57,3.12-10.43,5.86-17.57,8.2-7.14,2.34-14.67,4.8-22.59,7.36-7.92,2.57-15.45,5.75-22.59,9.54-7.14,3.79-13,8.82-17.57,15.06-4.57,6.25-6.86,14.28-6.86,24.09,0,8.26,1.73,15.51,5.18,21.75,3.46,6.25,8.53,11.1,15.23,14.55,6.69,3.46,14.61,5.19,23.76,5.19,10.48,0,19.91-2.45,28.27-7.36,8.36-4.9,15.56-12.38,21.58-22.42,0,6.7,1.06,12.22,3.18,16.57,2.12,4.34,5.3,7.64,9.54,9.87,4.23,2.23,9.59,3.35,16.06,3.35,7.14,0,12.82-1.17,17.06-3.51,4.24-2.34,8.7-5.29,13.39-8.87l-3.68-5.68c-3.12,2.45-5.8,4.24-8.03,5.35ZM94.03,223.69c-5.14,8.48-10.88,14.83-17.24,19.07-6.36,4.24-13.21,6.36-20.58,6.36-8.25,0-14.78-2.68-19.57-8.03-4.8-5.36-7.19-12.49-7.19-21.42s1.78-16.17,5.35-21.75c3.57-5.57,8.09-10.09,13.55-13.55,5.46-3.46,11.21-6.47,17.23-9.04,6.03-2.56,11.6-5.12,16.73-7.7,5.13-2.56,9.03-5.74,11.71-9.53v65.59Z"/>
    </g>
  </g>
</svg>