<?xml version="1.0" encoding="UTF-8"?>
<svg id="Layer_2" data-name="Layer 2" xmlns="http://www.w3.org/2000/svg" viewBox="0 0 1150.2 448.99">
  <defs>
    <style>
      .cls-1 {
        fill: #404e63;
      }
    </style>
  </defs>
  <g id="Layer_1-2" data-name="Layer 1">
    <g>
      <g>
        <g>
          <g>
            <path class="cls-1" d="M95.98,47.12l-3.95-10.19h-12.87l-3.93,10.19h-3.78l12.56-32.25h3.36l12.48,32.25h-3.87ZM90.91,33.61l-3.76-10.13c-.09-.26-.23-.7-.43-1.3-.2-.6-.4-1.22-.6-1.87-.21-.64-.37-1.16-.51-1.56-.15.6-.3,1.2-.47,1.79-.17.59-.33,1.14-.49,1.65-.16.5-.3.93-.42,1.28l-3.82,10.13h10.5Z"/>
            <path class="cls-1" d="M123.61,23.04v24.07h-2.99l-.53-3.38h-.2c-.5.84-1.14,1.54-1.93,2.11s-1.68,1-2.67,1.28c-.99.29-2.04.43-3.15.43-1.9,0-3.5-.31-4.79-.92-1.29-.62-2.26-1.57-2.91-2.86-.65-1.29-.98-2.94-.98-4.96v-15.77h3.69v15.51c0,2.01.45,3.5,1.36,4.49.91.99,2.29,1.48,4.15,1.48s3.21-.34,4.27-1.01,1.83-1.67,2.3-2.98c.47-1.31.7-2.92.7-4.82v-12.67h3.67Z"/>
            <path class="cls-1" d="M139.1,44.57c.6,0,1.21-.05,1.85-.15.63-.1,1.14-.23,1.54-.37v2.83c-.43.19-1.01.35-1.77.48-.76.13-1.49.2-2.21.2-1.27,0-2.43-.22-3.47-.67-1.04-.45-1.87-1.2-2.49-2.27-.62-1.07-.93-2.55-.93-4.44v-14.28h-3.43v-1.78l3.45-1.43,1.45-5.23h2.2v5.58h7.05v2.86h-7.05v14.17c0,1.51.35,2.64,1.04,3.38.69.75,1.62,1.12,2.78,1.12Z"/>
            <path class="cls-1" d="M168.11,35.04c0,1.98-.26,3.74-.77,5.29-.51,1.55-1.25,2.86-2.22,3.93s-2.13,1.88-3.5,2.45-2.92.85-4.65.85c-1.61,0-3.09-.28-4.43-.85-1.34-.56-2.5-1.38-3.47-2.45s-1.73-2.38-2.26-3.93-.8-3.32-.8-5.29c0-2.64.45-4.88,1.34-6.73.89-1.85,2.17-3.27,3.83-4.24s3.64-1.46,5.94-1.46,4.12.49,5.77,1.47c1.65.98,2.93,2.4,3.84,4.25.91,1.85,1.37,4.09,1.37,6.71ZM149.8,35.04c0,1.93.26,3.61.77,5.03.51,1.42,1.3,2.52,2.37,3.3,1.07.78,2.44,1.16,4.13,1.16s3.04-.39,4.12-1.16c1.08-.78,1.87-1.87,2.38-3.3.51-1.42.77-3.1.77-5.03s-.26-3.58-.77-4.98c-.51-1.4-1.3-2.48-2.37-3.24-1.07-.76-2.45-1.14-4.15-1.14-2.5,0-4.34.83-5.5,2.48-1.16,1.66-1.75,3.95-1.75,6.88Z"/>
            <path class="cls-1" d="M197.4,15l-11.53,32.11h-3.76l-11.53-32.11h3.91l7.51,21.15c.31.85.58,1.66.82,2.44s.46,1.52.65,2.24.36,1.41.51,2.09c.15-.67.31-1.37.5-2.1.19-.73.41-1.48.66-2.26.25-.78.53-1.61.83-2.47l7.47-21.09h3.95Z"/>
            <path class="cls-1" d="M210.25,22.65c2.87,0,5,.64,6.39,1.93s2.09,3.35,2.09,6.17v16.36h-2.66l-.7-3.56h-.18c-.67.88-1.38,1.61-2.11,2.21-.73.59-1.58,1.04-2.54,1.34-.96.3-2.13.45-3.53.45-1.46,0-2.76-.26-3.9-.77-1.14-.51-2.03-1.29-2.68-2.33-.65-1.04-.98-2.36-.98-3.95,0-2.4.95-4.25,2.86-5.53s4.8-1.99,8.7-2.11l4.15-.18v-1.47c0-2.08-.45-3.54-1.34-4.37-.89-.83-2.15-1.25-3.78-1.25-1.26,0-2.46.18-3.6.55-1.14.37-2.23.8-3.25,1.3l-1.12-2.77c1.08-.56,2.33-1.03,3.73-1.43,1.41-.4,2.89-.59,4.44-.59ZM215.12,35.26l-3.67.15c-3,.12-5.12.61-6.35,1.47-1.23.86-1.85,2.09-1.85,3.67,0,1.38.42,2.39,1.25,3.05.84.66,1.94.99,3.32.99,2.14,0,3.89-.59,5.25-1.78,1.36-1.19,2.04-2.96,2.04-5.34v-2.22Z"/>
            <path class="cls-1" d="M246.11,23.04v24.07h-2.99l-.53-3.38h-.2c-.5.84-1.14,1.54-1.93,2.11s-1.68,1-2.67,1.28c-.99.29-2.04.43-3.15.43-1.9,0-3.5-.31-4.79-.92-1.29-.62-2.26-1.57-2.91-2.86-.65-1.29-.98-2.94-.98-4.96v-15.77h3.69v15.51c0,2.01.45,3.5,1.36,4.49.91.99,2.29,1.48,4.15,1.48s3.21-.34,4.27-1.01,1.83-1.67,2.3-2.98c.47-1.31.7-2.92.7-4.82v-12.67h3.67Z"/>
            <path class="cls-1" d="M257.49,47.12h-3.67V12.94h3.67v34.18Z"/>
            <path class="cls-1" d="M272.96,44.57c.6,0,1.21-.05,1.85-.15.63-.1,1.14-.23,1.54-.37v2.83c-.43.19-1.01.35-1.77.48-.76.13-1.49.2-2.21.2-1.27,0-2.43-.22-3.47-.67-1.04-.45-1.87-1.2-2.49-2.27-.62-1.07-.93-2.55-.93-4.44v-14.28h-3.43v-1.78l3.45-1.43,1.45-5.23h2.2v5.58h7.05v2.86h-7.05v14.17c0,1.51.35,2.64,1.04,3.38.69.75,1.62,1.12,2.78,1.12Z"/>
          </g>
          <g>
            <path class="cls-1" d="M285.02,22.87h-1.5v-11.48h-4.02v-1.31h9.53v1.31h-4.01v11.48Z"/>
            <path class="cls-1" d="M296.58,22.87l-4.3-11.32h-.07c.02.24.04.53.06.87.02.34.03.72.04,1.12s.02.82.02,1.24v8.08h-1.38v-12.79h2.2l4.05,10.64h.06l4.11-10.64h2.19v12.79h-1.47v-8.19c0-.38,0-.76.02-1.14.01-.38.03-.74.04-1.09.02-.34.04-.64.05-.89h-.07l-4.35,11.3h-1.22Z"/>
          </g>
        </g>
        <g>
          <path class="cls-1" d="M41.06,0H15.76C7.07,0,0,7.07,0,15.76v25.31c0,8.69,7.07,15.76,15.76,15.76h25.31c8.69,0,15.76-7.07,15.76-15.76V15.76c0-8.69-7.07-15.76-15.76-15.76ZM55.37,41.06c0,7.89-6.42,14.3-14.3,14.3H15.76c-7.89,0-14.3-6.42-14.3-14.3V15.76C1.45,7.87,7.87,1.45,15.76,1.45h25.31c7.89,0,14.3,6.42,14.3,14.3v25.31Z"/>
          <path class="cls-1" d="M38.45,44.28c-.34.17-.71.26-1.08.26-.56,0-.96-.19-1.23-.57-.26-.37-.38-1-.38-1.85v-14.39c0-1.66-.14-3.08-.41-4.28-.28-1.19-.87-2.2-1.76-3.03-.45-.42-.98-.77-1.58-1.05.63-.55,1.19-1.12,1.66-1.71.26-.31.49-.61.69-.92.74-1.1,1.25-2.11,1.52-3.04.24-.8.36-1.57.36-2.27.01-.71-.27-1.42-.83-2.12-.5-.63-1.12-1.03-1.89-1.24-.77-.22-1.53,0-2.31.63-.68.54-1.07,1.17-1.19,1.91-.11.73.09,1.43.63,2.11.55.68,1.17,1.07,1.9,1.2.71.13,1.38.05,1.98-.26.01.96-.28,1.84-.91,2.64-.61.8-1.25,1.47-1.93,2.02-.13.1-.27.2-.4.29-.15.11-.3.21-.45.31-.94-.28-2.07-.42-3.35-.42-1.56,0-2.94.19-4.17.57-.04,0-.06.01-.1.03-.87.27-1.62.59-2.27.93-.29.15-.56.32-.8.49-.03.01-.05.04-.08.06-.2.13-.38.28-.56.42-.41.34-.77.7-1.07,1.07-.45.55-.66,1.28-.66,2.17,0,.79.23,1.52.69,2.14.47.65,1.2.96,2.21.96.86,0,1.56-.24,2.12-.74.55-.5.83-1.19.83-2.04s-.24-1.57-.73-2.13c-.49-.55-1.06-.89-1.71-1.03.59-.75,1.37-1.25,2.36-1.49.97-.24,1.9-.37,2.76-.37.91,0,1.71.14,2.44.4.73.26,1.3.77,1.74,1.52.42.77.64,1.86.64,3.32v3.2c0,.79-.36,1.43-1.06,1.91-.7.49-1.61.91-2.72,1.26-1.1.37-2.26.74-3.48,1.15-1.23.4-2.39.88-3.5,1.47-1.1.59-2,1.37-2.72,2.32-.7.97-1.06,2.21-1.06,3.73,0,1.28.27,2.4.8,3.37.54.96,1.33,1.71,2.36,2.25,1.03.54,2.26.8,3.66.8,1.62,0,3.08-.38,4.38-1.14,1.29-.77,2.4-1.91,3.33-3.47,0,1.03.17,1.89.5,2.57.32.66.82,1.17,1.47,1.52.66.34,1.48.52,2.49.52,1.1,0,1.98-.18,2.63-.55.66-.36,1.35-.82,2.08-1.37l-.57-.88c-.49.38-.89.65-1.24.83ZM31.1,40.25c-.79,1.3-1.67,2.28-2.65,2.95-.98.65-2.06.98-3.19.98-1.28,0-2.28-.42-3.03-1.25-.74-.82-1.11-1.93-1.11-3.31s.28-2.5.83-3.36c.55-.87,1.25-1.57,2.09-2.11.84-.52,1.74-1,2.67-1.39.93-.4,1.79-.79,2.58-1.19.8-.4,1.4-.89,1.81-1.48v10.15Z"/>
        </g>
      </g>
      <g>
        <g>
          <g>
            <path class="cls-1" d="M95.98,243l-3.95-10.19h-12.87l-3.93,10.19h-3.78l12.56-32.25h3.36l12.48,32.25h-3.87ZM90.91,229.49l-3.76-10.13c-.09-.26-.23-.7-.43-1.3-.2-.6-.4-1.22-.6-1.87-.21-.64-.37-1.16-.51-1.56-.15.6-.3,1.2-.47,1.79-.17.59-.33,1.14-.49,1.65-.16.5-.3.93-.42,1.28l-3.82,10.13h10.5Z"/>
            <path class="cls-1" d="M105.6,209.92c.6,0,1.12.19,1.55.58.43.39.65.99.65,1.81s-.22,1.41-.65,1.8c-.43.4-.95.59-1.55.59s-1.15-.2-1.57-.59-.63-1-.63-1.8.21-1.42.63-1.81.94-.58,1.57-.58ZM107.38,218.92v24.07h-3.65v-24.07h3.65Z"/>
            <path class="cls-1" d="M130.66,236.41c0,1.54-.38,2.83-1.15,3.88-.77,1.05-1.87,1.83-3.29,2.36-1.43.53-3.13.79-5.11.79-1.68,0-3.14-.13-4.37-.4-1.23-.26-2.31-.64-3.23-1.12v-3.36c.98.48,2.15.92,3.51,1.32,1.36.4,2.75.59,4.17.59,2.08,0,3.59-.34,4.53-1.01s1.41-1.59,1.41-2.75c0-.66-.19-1.24-.56-1.75s-1-1-1.88-1.47c-.88-.48-2.09-1-3.65-1.57-1.54-.58-2.87-1.17-3.99-1.75-1.12-.58-1.98-1.28-2.59-2.12-.61-.84-.91-1.92-.91-3.25,0-2.04.82-3.6,2.47-4.69,1.65-1.09,3.81-1.64,6.49-1.64,1.45,0,2.81.14,4.07.43,1.27.29,2.45.67,3.55,1.15l-1.23,2.92c-1-.43-2.06-.78-3.19-1.08-1.13-.29-2.28-.44-3.45-.44-1.68,0-2.98.28-3.88.84-.9.56-1.35,1.32-1.35,2.28,0,.75.21,1.36.63,1.85s1.09.94,2.01,1.36,2.14.92,3.65,1.49c1.51.56,2.81,1.13,3.91,1.73,1.1.59,1.94,1.31,2.54,2.15.59.84.89,1.92.89,3.24Z"/>
            <path class="cls-1" d="M140.2,243h-3.67v-34.18h3.67v34.18Z"/>
            <path class="cls-1" d="M157.15,218.48c2.05,0,3.81.45,5.27,1.36s2.58,2.18,3.36,3.81,1.16,3.54,1.16,5.72v2.26h-16.63c.04,2.83.75,4.98,2.11,6.46,1.36,1.48,3.28,2.22,5.75,2.22,1.52,0,2.87-.14,4.04-.42,1.17-.28,2.39-.69,3.65-1.23v3.21c-1.21.54-2.42.94-3.61,1.19-1.19.25-2.6.37-4.23.37-2.31,0-4.33-.47-6.05-1.42-1.72-.95-3.06-2.33-4.01-4.16-.95-1.83-1.43-4.07-1.43-6.72s.44-4.84,1.31-6.73,2.1-3.36,3.69-4.38c1.59-1.02,3.46-1.54,5.61-1.54ZM157.11,221.47c-1.95,0-3.5.64-4.66,1.91s-1.85,3.05-2.06,5.34h12.74c-.01-1.43-.24-2.7-.67-3.79-.43-1.09-1.09-1.94-1.97-2.55-.88-.61-2.01-.91-3.38-.91Z"/>
          </g>
          <g>
            <path class="cls-1" d="M175.59,218.75h-1.5v-11.48h-4.02v-1.31h9.53v1.31h-4.01v11.48Z"/>
            <path class="cls-1" d="M187.16,218.75l-4.3-11.32h-.07c.02.24.04.53.06.87.02.34.03.72.04,1.12s.02.82.02,1.24v8.08h-1.38v-12.79h2.2l4.05,10.64h.06l4.11-10.64h2.19v12.79h-1.47v-8.19c0-.38,0-.76.02-1.14.01-.38.03-.74.04-1.09.02-.34.04-.64.05-.89h-.07l-4.35,11.3h-1.22Z"/>
          </g>
        </g>
        <g>
          <path class="cls-1" d="M41.06,196.29H15.76c-8.69,0-15.76,7.07-15.76,15.76v25.31c0,8.69,7.07,15.76,15.76,15.76h25.31c8.69,0,15.76-7.07,15.76-15.76v-25.31c0-8.69-7.07-15.76-15.76-15.76ZM55.37,237.36c0,7.89-6.42,14.3-14.3,14.3H15.76c-7.89,0-14.3-6.42-14.3-14.3v-25.31c0-7.89,6.42-14.3,14.3-14.3h25.31c7.89,0,14.3,6.42,14.3,14.3v25.31Z"/>
          <path class="cls-1" d="M38.45,240.57c-.34.17-.71.26-1.08.26-.56,0-.96-.19-1.23-.57-.26-.37-.38-1-.38-1.85v-14.39c0-1.66-.14-3.08-.41-4.28-.28-1.19-.87-2.2-1.76-3.03-.45-.42-.98-.77-1.58-1.05.63-.55,1.19-1.12,1.66-1.71.26-.31.49-.61.69-.92.74-1.1,1.25-2.11,1.52-3.04.24-.8.36-1.57.36-2.27.01-.71-.27-1.42-.83-2.12-.5-.63-1.12-1.03-1.89-1.24-.77-.22-1.53,0-2.31.63-.68.54-1.07,1.17-1.19,1.91-.11.73.09,1.43.63,2.11.55.68,1.17,1.07,1.9,1.2.71.13,1.38.05,1.98-.26.01.96-.28,1.84-.91,2.64-.61.8-1.25,1.47-1.93,2.02-.13.1-.27.2-.4.29-.15.11-.3.21-.45.31-.94-.28-2.07-.42-3.35-.42-1.56,0-2.94.19-4.17.57-.04,0-.06.01-.1.03-.87.27-1.62.59-2.27.93-.29.15-.56.32-.8.49-.03.01-.05.04-.08.06-.2.13-.38.28-.56.42-.41.34-.77.7-1.07,1.07-.45.55-.66,1.28-.66,2.17,0,.79.23,1.52.69,2.14.47.65,1.2.96,2.21.96.86,0,1.56-.24,2.12-.74.55-.5.83-1.19.83-2.04s-.24-1.57-.73-2.13c-.49-.55-1.06-.89-1.71-1.03.59-.75,1.37-1.25,2.36-1.49.97-.24,1.9-.37,2.76-.37.91,0,1.71.14,2.44.4.73.26,1.3.77,1.74,1.52.42.77.64,1.86.64,3.32v3.2c0,.79-.36,1.43-1.06,1.91-.7.49-1.61.91-2.72,1.26-1.1.37-2.26.74-3.48,1.15-1.23.4-2.39.88-3.5,1.47-1.1.59-2,1.37-2.72,2.32-.7.97-1.06,2.21-1.06,3.73,0,1.28.27,2.4.8,3.37.54.96,1.33,1.71,2.36,2.25,1.03.54,2.26.8,3.66.8,1.62,0,3.08-.38,4.38-1.14,1.29-.77,2.4-1.91,3.33-3.47,0,1.03.17,1.89.5,2.57.32.66.82,1.17,1.47,1.52.66.34,1.48.52,2.49.52,1.1,0,1.98-.18,2.63-.55.66-.36,1.35-.82,2.08-1.37l-.57-.88c-.49.38-.89.65-1.24.83ZM31.1,236.54c-.79,1.3-1.67,2.28-2.65,2.95-.98.65-2.06.98-3.19.98-1.28,0-2.28-.42-3.03-1.25-.74-.82-1.11-1.93-1.11-3.31s.28-2.5.83-3.36c.55-.87,1.25-1.57,2.09-2.11.84-.52,1.74-1,2.67-1.39.93-.4,1.79-.79,2.58-1.19.8-.4,1.4-.89,1.81-1.48v10.15Z"/>
        </g>
      </g>
      <g>
        <g>
          <g>
            <path class="cls-1" d="M86.82,409.6c-1.77,0-3.36.3-4.78.91-1.42.61-2.61,1.49-3.6,2.64-.99,1.15-1.75,2.54-2.27,4.16-.53,1.63-.79,3.46-.79,5.49,0,2.7.42,5.03,1.26,7.02s2.1,3.52,3.78,4.6,3.78,1.62,6.29,1.62c1.43,0,2.79-.12,4.05-.36s2.5-.55,3.7-.91v3.25c-1.17.44-2.4.77-3.69.98-1.29.21-2.82.32-4.59.32-3.27,0-5.99-.68-8.18-2.03s-3.83-3.27-4.92-5.74-1.64-5.4-1.64-8.76c0-2.43.34-4.65,1.02-6.67.68-2.01,1.68-3.75,2.99-5.22,1.31-1.46,2.92-2.6,4.83-3.39,1.91-.8,4.11-1.2,6.58-1.2,1.63,0,3.19.16,4.7.48,1.51.32,2.87.78,4.08,1.38l-1.49,3.16c-1.02-.47-2.15-.88-3.37-1.22-1.22-.34-2.54-.52-3.97-.52Z"/>
            <path class="cls-1" d="M109.89,414.41c2.87,0,5,.64,6.39,1.93s2.09,3.35,2.09,6.17v16.36h-2.66l-.7-3.56h-.17c-.68.88-1.38,1.61-2.11,2.21-.73.59-1.58,1.04-2.54,1.34-.96.3-2.14.45-3.53.45-1.46,0-2.76-.26-3.9-.77-1.14-.51-2.03-1.29-2.68-2.33-.65-1.04-.98-2.36-.98-3.95,0-2.4.95-4.25,2.86-5.53s4.8-1.99,8.7-2.11l4.15-.18v-1.47c0-2.08-.45-3.54-1.34-4.37-.89-.83-2.15-1.25-3.78-1.25-1.26,0-2.46.18-3.6.55-1.14.37-2.23.8-3.25,1.3l-1.12-2.77c1.09-.56,2.33-1.03,3.74-1.43,1.4-.4,2.89-.59,4.44-.59ZM114.76,427.01l-3.67.15c-3,.12-5.12.61-6.35,1.47-1.23.86-1.85,2.09-1.85,3.67,0,1.38.42,2.39,1.25,3.05.83.66,1.94.99,3.32.99,2.14,0,3.89-.59,5.25-1.78,1.36-1.19,2.04-2.96,2.04-5.34v-2.22Z"/>
            <path class="cls-1" d="M136.81,414.36c.48,0,.99.03,1.52.08.53.05,1,.12,1.41.21l-.46,3.38c-.4-.1-.83-.18-1.32-.24-.48-.06-.94-.09-1.36-.09-.97,0-1.88.19-2.74.58-.86.39-1.61.94-2.25,1.67s-1.15,1.6-1.52,2.61c-.36,1.02-.55,2.15-.55,3.39v12.92h-3.67v-24.07h3.03l.4,4.44h.15c.5-.89,1.1-1.71,1.8-2.45s1.52-1.33,2.45-1.77c.93-.44,1.97-.66,3.11-.66Z"/>
            <path class="cls-1" d="M153.53,414.36c2.05,0,3.81.45,5.27,1.36,1.46.91,2.58,2.18,3.36,3.81s1.16,3.54,1.16,5.72v2.26h-16.63c.04,2.83.75,4.98,2.11,6.46,1.36,1.48,3.28,2.22,5.76,2.22,1.52,0,2.87-.14,4.04-.42s2.39-.69,3.65-1.23v3.21c-1.21.54-2.42.94-3.61,1.19-1.19.25-2.6.37-4.23.37-2.32,0-4.33-.47-6.05-1.42-1.72-.95-3.05-2.33-4.01-4.16-.95-1.83-1.43-4.07-1.43-6.72s.44-4.84,1.31-6.73,2.1-3.36,3.69-4.38c1.59-1.02,3.46-1.54,5.61-1.54ZM153.49,417.35c-1.95,0-3.5.64-4.66,1.91s-1.85,3.05-2.06,5.34h12.74c-.02-1.43-.24-2.7-.67-3.79-.43-1.09-1.09-1.94-1.96-2.55-.88-.61-2.01-.91-3.38-.91Z"/>
          </g>
          <g>
            <path class="cls-1" d="M169.46,414.63h-1.49v-11.48h-4.02v-1.31h9.53v1.31h-4.01v11.48Z"/>
            <path class="cls-1" d="M181.03,414.63l-4.3-11.32h-.07c.02.24.04.53.06.87.02.34.03.72.04,1.12.01.41.02.82.02,1.24v8.08h-1.38v-12.79h2.2l4.05,10.64h.06l4.11-10.64h2.19v12.79h-1.47v-8.19c0-.38,0-.76.02-1.14.01-.38.03-.74.04-1.09.02-.34.03-.64.05-.89h-.07l-4.35,11.3h-1.22Z"/>
          </g>
        </g>
        <g>
          <path class="cls-1" d="M41.06,392.17H15.76c-8.69,0-15.76,7.07-15.76,15.76v25.31c0,8.69,7.07,15.76,15.76,15.76h25.31c8.69,0,15.76-7.07,15.76-15.76v-25.31c0-8.69-7.07-15.76-15.76-15.76ZM55.37,433.23c0,7.89-6.42,14.3-14.3,14.3H15.76c-7.89,0-14.3-6.42-14.3-14.3v-25.31c0-7.89,6.42-14.3,14.3-14.3h25.31c7.89,0,14.3,6.42,14.3,14.3v25.31Z"/>
          <path class="cls-1" d="M38.45,436.45c-.34.17-.71.26-1.08.26-.56,0-.96-.19-1.23-.57-.26-.37-.38-1-.38-1.85v-14.39c0-1.66-.14-3.08-.41-4.28-.28-1.19-.87-2.2-1.76-3.03-.45-.42-.98-.77-1.58-1.05.63-.55,1.19-1.12,1.66-1.71.26-.31.49-.61.69-.92.74-1.1,1.25-2.11,1.52-3.04.24-.8.36-1.57.36-2.27.01-.71-.27-1.42-.83-2.12-.5-.63-1.12-1.03-1.89-1.24-.77-.22-1.53,0-2.31.63-.68.54-1.07,1.17-1.19,1.91-.11.73.09,1.43.63,2.11.55.68,1.17,1.07,1.9,1.2.71.13,1.38.05,1.98-.26.01.96-.28,1.84-.91,2.64-.61.8-1.25,1.47-1.93,2.02-.13.1-.27.2-.4.29-.15.11-.3.21-.45.31-.94-.28-2.07-.42-3.35-.42-1.56,0-2.94.19-4.17.57-.04,0-.06.01-.1.03-.87.27-1.62.59-2.27.93-.29.15-.56.32-.8.49-.03.01-.05.04-.08.06-.2.13-.38.28-.56.42-.41.34-.77.7-1.07,1.07-.45.55-.66,1.28-.66,2.17,0,.79.23,1.52.69,2.14.47.65,1.2.96,2.21.96.86,0,1.56-.24,2.12-.74.55-.5.83-1.19.83-2.04s-.24-1.57-.73-2.13c-.49-.55-1.06-.89-1.71-1.03.59-.75,1.37-1.25,2.36-1.49.97-.24,1.9-.37,2.76-.37.91,0,1.71.14,2.44.4.73.26,1.3.77,1.74,1.52.42.77.64,1.86.64,3.32v3.2c0,.79-.36,1.43-1.06,1.91-.7.49-1.61.91-2.72,1.26-1.1.37-2.26.74-3.48,1.15-1.23.4-2.39.88-3.5,1.47-1.1.59-2,1.37-2.72,2.32-.7.97-1.06,2.21-1.06,3.73,0,1.28.27,2.4.8,3.37.54.96,1.33,1.71,2.36,2.25,1.03.54,2.26.8,3.66.8,1.62,0,3.08-.38,4.38-1.14,1.29-.77,2.4-1.91,3.33-3.47,0,1.03.17,1.89.5,2.57.32.66.82,1.17,1.47,1.52.66.34,1.48.52,2.49.52,1.1,0,1.98-.18,2.63-.55.66-.36,1.35-.82,2.08-1.37l-.57-.88c-.49.38-.89.65-1.24.83ZM31.1,432.42c-.79,1.3-1.67,2.28-2.65,2.95-.98.65-2.06.98-3.19.98-1.28,0-2.28-.42-3.03-1.25-.74-.82-1.11-1.93-1.11-3.31s.28-2.5.83-3.36c.55-.87,1.25-1.57,2.09-2.11.84-.52,1.74-1,2.67-1.39.93-.4,1.79-.79,2.58-1.19.8-.4,1.4-.89,1.81-1.48v10.15Z"/>
        </g>
      </g>
      <g>
        <g>
          <g>
            <path class="cls-1" d="M589.79,47.12h-3.73V15.01h17.88v3.29h-14.15v11.77h13.29v3.27h-13.29v13.77Z"/>
            <path class="cls-1" d="M612.39,47.12h-3.67V12.94h3.67v34.18Z"/>
            <path class="cls-1" d="M640.84,35.04c0,1.98-.26,3.74-.77,5.29-.51,1.55-1.25,2.86-2.22,3.93s-2.13,1.88-3.5,2.45-2.92.85-4.65.85c-1.61,0-3.09-.28-4.43-.85-1.34-.56-2.5-1.38-3.47-2.45s-1.73-2.38-2.26-3.93-.8-3.32-.8-5.29c0-2.64.45-4.88,1.34-6.73.89-1.85,2.17-3.27,3.83-4.24s3.64-1.46,5.94-1.46,4.12.49,5.77,1.47c1.65.98,2.93,2.4,3.84,4.25.91,1.85,1.37,4.09,1.37,6.71ZM622.52,35.04c0,1.93.26,3.61.77,5.03.51,1.42,1.3,2.52,2.37,3.3,1.07.78,2.44,1.16,4.13,1.16s3.04-.39,4.12-1.16c1.08-.78,1.87-1.87,2.38-3.3.51-1.42.77-3.1.77-5.03s-.26-3.58-.77-4.98c-.51-1.4-1.3-2.48-2.37-3.24-1.07-.76-2.45-1.14-4.15-1.14-2.5,0-4.34.83-5.5,2.48-1.16,1.66-1.75,3.95-1.75,6.88Z"/>
            <path class="cls-1" d="M666.73,47.08l-4.28-14.01c-.19-.6-.37-1.19-.54-1.77-.17-.58-.32-1.14-.46-1.67-.14-.53-.26-1.03-.37-1.49-.11-.46-.2-.86-.27-1.2h-.15c-.06.34-.14.74-.24,1.2-.1.46-.22.96-.36,1.5-.14.54-.29,1.11-.45,1.7s-.34,1.19-.55,1.79l-4.48,13.95h-4.11l-6.63-24.07h3.78l3.47,13.29c.23.88.46,1.75.67,2.6s.4,1.66.55,2.42c.15.75.27,1.41.34,1.97h.18c.09-.37.19-.81.3-1.32.11-.51.23-1.06.37-1.64.14-.58.29-1.16.45-1.74.16-.58.32-1.12.48-1.64l4.44-13.95h3.93l4.28,13.93c.22.7.44,1.43.65,2.2.21.76.41,1.5.58,2.21s.3,1.34.37,1.9h.18c.06-.5.17-1.11.33-1.85s.35-1.54.56-2.42c.21-.88.44-1.77.67-2.68l3.52-13.29h3.71l-6.66,24.07h-4.24Z"/>
          </g>
          <g>
            <path class="cls-1" d="M687.9,22.87h-1.5v-11.48h-4.02v-1.31h9.53v1.31h-4.01v11.48Z"/>
            <path class="cls-1" d="M699.46,22.87l-4.3-11.32h-.07c.02.24.04.53.06.87.02.34.03.72.04,1.12s.02.82.02,1.24v8.08h-1.38v-12.79h2.2l4.05,10.64h.06l4.11-10.64h2.19v12.79h-1.47v-8.19c0-.38,0-.76.02-1.14.01-.38.03-.74.04-1.09.02-.34.04-.64.05-.89h-.07l-4.35,11.3h-1.22Z"/>
          </g>
        </g>
        <g>
          <path class="cls-1" d="M555.67,0h-25.31c-8.69,0-15.76,7.07-15.76,15.76v25.31c0,8.69,7.07,15.76,15.76,15.76h25.31c8.69,0,15.76-7.07,15.76-15.76V15.76c0-8.69-7.07-15.76-15.76-15.76ZM569.98,41.06c0,7.89-6.42,14.3-14.3,14.3h-25.31c-7.89,0-14.3-6.42-14.3-14.3V15.76c0-7.89,6.42-14.3,14.3-14.3h25.31c7.89,0,14.3,6.42,14.3,14.3v25.31Z"/>
          <path class="cls-1" d="M553.06,44.28c-.34.17-.71.26-1.08.26-.56,0-.96-.19-1.23-.57-.26-.37-.38-1-.38-1.85v-14.39c0-1.66-.14-3.08-.41-4.28-.28-1.19-.87-2.2-1.76-3.03-.45-.42-.98-.77-1.58-1.05.63-.55,1.19-1.12,1.66-1.71.26-.31.49-.61.69-.92.74-1.1,1.25-2.11,1.52-3.04.24-.8.36-1.57.36-2.27.01-.71-.27-1.42-.83-2.12-.5-.63-1.12-1.03-1.89-1.24-.77-.22-1.53,0-2.31.63-.68.54-1.07,1.17-1.19,1.91-.11.73.09,1.43.63,2.11.55.68,1.17,1.07,1.9,1.2.71.13,1.38.05,1.98-.26.01.96-.28,1.84-.91,2.64-.61.8-1.25,1.47-1.93,2.02-.13.1-.27.2-.4.29-.15.11-.3.21-.45.31-.94-.28-2.07-.42-3.35-.42-1.56,0-2.94.19-4.17.57-.04,0-.06.01-.1.03-.87.27-1.62.59-2.27.93-.29.15-.56.32-.8.49-.03.01-.05.04-.08.06-.2.13-.38.28-.56.42-.41.34-.77.7-1.07,1.07-.45.55-.66,1.28-.66,2.17,0,.79.23,1.52.69,2.14.47.65,1.2.96,2.21.96.86,0,1.56-.24,2.12-.74.55-.5.83-1.19.83-2.04s-.24-1.57-.73-2.13c-.49-.55-1.06-.89-1.71-1.03.59-.75,1.37-1.25,2.36-1.49.97-.24,1.9-.37,2.76-.37.91,0,1.71.14,2.44.4.73.26,1.3.77,1.74,1.52.42.77.64,1.86.64,3.32v3.2c0,.79-.36,1.43-1.06,1.91-.7.49-1.61.91-2.72,1.26-1.1.37-2.26.74-3.48,1.15-1.23.4-2.39.88-3.5,1.47-1.1.59-2,1.37-2.72,2.32-.7.97-1.06,2.21-1.06,3.73,0,1.28.27,2.4.8,3.37.54.96,1.33,1.71,2.36,2.25,1.03.54,2.26.8,3.66.8,1.62,0,3.08-.38,4.38-1.14,1.29-.77,2.4-1.91,3.33-3.47,0,1.03.17,1.89.5,2.57.32.66.82,1.17,1.47,1.52.66.34,1.48.52,2.49.52,1.1,0,1.98-.18,2.63-.55.66-.36,1.35-.82,2.08-1.37l-.57-.88c-.49.38-.89.65-1.24.83ZM545.71,40.25c-.79,1.3-1.67,2.28-2.65,2.95-.98.65-2.06.98-3.19.98-1.28,0-2.28-.42-3.03-1.25-.74-.82-1.11-1.93-1.11-3.31s.28-2.5.83-3.36c.55-.87,1.25-1.57,2.09-2.11.84-.52,1.74-1,2.67-1.39.93-.4,1.79-.79,2.58-1.19.8-.4,1.4-.89,1.81-1.48v10.15Z"/>
        </g>
      </g>
      <g>
        <g>
          <g>
            <path class="cls-1" d="M586.05,243v-32.11h3.73v28.78h14.25v3.34h-17.99Z"/>
            <path class="cls-1" d="M618.25,218.49c2.05,0,3.81.45,5.27,1.36s2.58,2.18,3.36,3.81,1.16,3.54,1.16,5.72v2.26h-16.63c.04,2.83.75,4.98,2.11,6.46,1.36,1.48,3.28,2.22,5.75,2.22,1.52,0,2.87-.14,4.04-.42,1.17-.28,2.39-.69,3.65-1.23v3.21c-1.21.54-2.42.94-3.61,1.19-1.19.25-2.6.37-4.23.37-2.31,0-4.33-.47-6.05-1.42-1.72-.95-3.06-2.33-4.01-4.16-.95-1.83-1.43-4.07-1.43-6.72s.44-4.84,1.31-6.73,2.1-3.36,3.69-4.38c1.59-1.02,3.46-1.54,5.61-1.54ZM618.21,221.47c-1.95,0-3.5.64-4.66,1.91s-1.85,3.05-2.06,5.34h12.74c-.01-1.43-.24-2.7-.67-3.79-.43-1.09-1.09-1.94-1.97-2.55-.88-.61-2.01-.91-3.38-.91Z"/>
            <path class="cls-1" d="M645.65,218.49c2.86,0,5.02.7,6.48,2.1,1.46,1.4,2.2,3.64,2.2,6.73v15.68h-3.6v-15.44c0-2.01-.46-3.51-1.37-4.5-.91-1-2.32-1.49-4.21-1.49-2.67,0-4.54.76-5.62,2.26-1.08,1.51-1.63,3.7-1.63,6.57v12.61h-3.65v-24.07h2.94l.55,3.47h.2c.51-.85,1.16-1.56,1.95-2.14s1.68-1.02,2.66-1.32c.98-.3,2.01-.45,3.1-.45Z"/>
            <path class="cls-1" d="M677.41,236.41c0,1.54-.38,2.83-1.15,3.88-.77,1.05-1.87,1.83-3.29,2.36-1.43.53-3.13.79-5.11.79-1.68,0-3.14-.13-4.37-.4-1.23-.26-2.31-.64-3.23-1.12v-3.36c.98.48,2.15.92,3.51,1.32,1.36.4,2.75.59,4.17.59,2.08,0,3.59-.34,4.53-1.01s1.41-1.59,1.41-2.75c0-.66-.19-1.24-.56-1.75s-1-1-1.88-1.47c-.88-.48-2.09-1-3.65-1.57-1.54-.58-2.87-1.17-3.99-1.75-1.12-.58-1.98-1.28-2.59-2.12-.61-.84-.91-1.92-.91-3.25,0-2.04.82-3.6,2.47-4.69,1.65-1.09,3.81-1.64,6.49-1.64,1.45,0,2.81.14,4.07.43,1.27.29,2.45.67,3.55,1.15l-1.23,2.92c-1-.43-2.06-.78-3.19-1.08-1.13-.29-2.28-.44-3.45-.44-1.68,0-2.98.28-3.88.84-.9.56-1.35,1.32-1.35,2.28,0,.75.21,1.36.63,1.85s1.09.94,2.01,1.36,2.14.92,3.65,1.49c1.51.56,2.81,1.13,3.91,1.73,1.1.59,1.94,1.31,2.54,2.15.59.84.89,1.92.89,3.24Z"/>
          </g>
          <g>
            <path class="cls-1" d="M686.86,218.75h-1.5v-11.48h-4.02v-1.31h9.53v1.31h-4.01v11.48Z"/>
            <path class="cls-1" d="M698.42,218.75l-4.3-11.32h-.07c.02.24.04.53.06.87.02.34.03.72.04,1.12s.02.82.02,1.24v8.08h-1.38v-12.79h2.2l4.05,10.64h.06l4.11-10.64h2.19v12.79h-1.47v-8.19c0-.38,0-.76.02-1.14.01-.38.03-.74.04-1.09.02-.34.04-.64.05-.89h-.07l-4.35,11.3h-1.22Z"/>
          </g>
        </g>
        <g>
          <path class="cls-1" d="M555.67,196.29h-25.31c-8.69,0-15.76,7.07-15.76,15.76v25.31c0,8.69,7.07,15.76,15.76,15.76h25.31c8.69,0,15.76-7.07,15.76-15.76v-25.31c0-8.69-7.07-15.76-15.76-15.76ZM569.98,237.36c0,7.89-6.42,14.3-14.3,14.3h-25.31c-7.89,0-14.3-6.42-14.3-14.3v-25.31c0-7.89,6.42-14.3,14.3-14.3h25.31c7.89,0,14.3,6.42,14.3,14.3v25.31Z"/>
          <path class="cls-1" d="M553.06,240.57c-.34.17-.71.26-1.08.26-.56,0-.96-.19-1.23-.57-.26-.37-.38-1-.38-1.85v-14.39c0-1.66-.14-3.08-.41-4.28-.28-1.19-.87-2.2-1.76-3.03-.45-.42-.98-.77-1.58-1.05.63-.55,1.19-1.12,1.66-1.71.26-.31.49-.61.69-.92.74-1.1,1.25-2.11,1.52-3.04.24-.8.36-1.57.36-2.27.01-.71-.27-1.42-.83-2.12-.5-.63-1.12-1.03-1.89-1.24-.77-.22-1.53,0-2.31.63-.68.54-1.07,1.17-1.19,1.91-.11.73.09,1.43.63,2.11.55.68,1.17,1.07,1.9,1.2.71.13,1.38.05,1.98-.26.01.96-.28,1.84-.91,2.64-.61.8-1.25,1.47-1.93,2.02-.13.1-.27.2-.4.29-.15.11-.3.21-.45.31-.94-.28-2.07-.42-3.35-.42-1.56,0-2.94.19-4.17.57-.04,0-.06.01-.1.03-.87.27-1.62.59-2.27.93-.29.15-.56.32-.8.49-.03.01-.05.04-.08.06-.2.13-.38.28-.56.42-.41.34-.77.7-1.07,1.07-.45.55-.66,1.28-.66,2.17,0,.79.23,1.52.69,2.14.47.65,1.2.96,2.21.96.86,0,1.56-.24,2.12-.74.55-.5.83-1.19.83-2.04s-.24-1.57-.73-2.13c-.49-.55-1.06-.89-1.71-1.03.59-.75,1.37-1.25,2.36-1.49.97-.24,1.9-.37,2.76-.37.91,0,1.71.14,2.44.4.73.26,1.3.77,1.74,1.52.42.77.64,1.86.64,3.32v3.2c0,.79-.36,1.43-1.06,1.91-.7.49-1.61.91-2.72,1.26-1.1.37-2.26.74-3.48,1.15-1.23.4-2.39.88-3.5,1.47-1.1.59-2,1.37-2.72,2.32-.7.97-1.06,2.21-1.06,3.73,0,1.28.27,2.4.8,3.37.54.96,1.33,1.71,2.36,2.25,1.03.54,2.26.8,3.66.8,1.62,0,3.08-.38,4.38-1.14,1.29-.77,2.4-1.91,3.33-3.47,0,1.03.17,1.89.5,2.57.32.66.82,1.17,1.47,1.52.66.34,1.48.52,2.49.52,1.1,0,1.98-.18,2.63-.55.66-.36,1.35-.82,2.08-1.37l-.57-.88c-.49.38-.89.65-1.24.83ZM545.71,236.54c-.79,1.3-1.67,2.28-2.65,2.95-.98.65-2.06.98-3.19.98-1.28,0-2.28-.42-3.03-1.25-.74-.82-1.11-1.93-1.11-3.31s.28-2.5.83-3.36c.55-.87,1.25-1.57,2.09-2.11.84-.52,1.74-1,2.67-1.39.93-.4,1.79-.79,2.58-1.19.8-.4,1.4-.89,1.81-1.48v10.15Z"/>
        </g>
      </g>
      <g>
        <g>
          <g>
            <path class="cls-1" d="M594.73,406.76c2.64,0,4.81.33,6.53.98,1.72.65,3.01,1.64,3.86,2.98.85,1.33,1.27,3.03,1.27,5.1,0,1.7-.31,3.12-.92,4.25-.62,1.13-1.42,2.05-2.42,2.76-1,.7-2.06,1.24-3.19,1.62l8.81,14.43h-4.35l-7.86-13.4h-6.68v13.4h-3.73v-32.11h8.68ZM594.51,409.99h-4.72v12.32h5.1c2.62,0,4.55-.53,5.79-1.6,1.24-1.07,1.86-2.64,1.86-4.72,0-2.18-.65-3.73-1.97-4.63s-3.33-1.36-6.05-1.36Z"/>
            <path class="cls-1" d="M622.54,414.36c2.05,0,3.81.45,5.27,1.36s2.58,2.18,3.36,3.81,1.16,3.54,1.16,5.72v2.26h-16.63c.04,2.83.75,4.98,2.11,6.46,1.36,1.48,3.28,2.22,5.75,2.22,1.52,0,2.87-.14,4.04-.42,1.17-.28,2.39-.69,3.65-1.23v3.21c-1.21.54-2.42.94-3.61,1.19-1.19.25-2.6.37-4.23.37-2.31,0-4.33-.47-6.05-1.42-1.72-.95-3.06-2.33-4.01-4.16-.95-1.83-1.43-4.07-1.43-6.72s.44-4.84,1.31-6.73,2.1-3.36,3.69-4.38c1.59-1.02,3.46-1.54,5.61-1.54ZM622.49,417.35c-1.95,0-3.5.64-4.66,1.91s-1.85,3.05-2.06,5.34h12.74c-.01-1.43-.24-2.7-.67-3.79-.43-1.09-1.09-1.94-1.97-2.55-.88-.61-2.01-.91-3.38-.91Z"/>
            <path class="cls-1" d="M643.82,438.88l-9.14-24.07h3.91l5.29,14.56c.37,1,.74,2.09,1.12,3.29.38,1.2.64,2.17.79,2.9h.15c.18-.73.47-1.7.88-2.91.41-1.21.78-2.3,1.12-3.28l5.29-14.56h3.91l-9.16,24.07h-4.17Z"/>
            <path class="cls-1" d="M670.27,414.36c2.05,0,3.81.45,5.27,1.36s2.58,2.18,3.36,3.81,1.16,3.54,1.16,5.72v2.26h-16.63c.04,2.83.75,4.98,2.11,6.46,1.36,1.48,3.28,2.22,5.75,2.22,1.52,0,2.87-.14,4.04-.42,1.17-.28,2.39-.69,3.65-1.23v3.21c-1.21.54-2.42.94-3.61,1.19-1.19.25-2.6.37-4.23.37-2.31,0-4.33-.47-6.05-1.42-1.72-.95-3.06-2.33-4.01-4.16-.95-1.83-1.43-4.07-1.43-6.72s.44-4.84,1.31-6.73,2.1-3.36,3.69-4.38c1.59-1.02,3.46-1.54,5.61-1.54ZM670.23,417.35c-1.95,0-3.5.64-4.66,1.91s-1.85,3.05-2.06,5.34h12.74c-.01-1.43-.24-2.7-.67-3.79-.43-1.09-1.09-1.94-1.97-2.55-.88-.61-2.01-.91-3.38-.91Z"/>
            <path class="cls-1" d="M697.66,414.36c2.86,0,5.02.7,6.48,2.1,1.46,1.4,2.2,3.64,2.2,6.73v15.68h-3.6v-15.44c0-2.01-.46-3.51-1.37-4.5-.91-1-2.32-1.49-4.21-1.49-2.67,0-4.54.76-5.62,2.26-1.08,1.51-1.63,3.7-1.63,6.57v12.61h-3.65v-24.07h2.94l.55,3.47h.2c.51-.85,1.16-1.56,1.95-2.14s1.68-1.02,2.66-1.32c.98-.3,2.01-.45,3.1-.45Z"/>
          </g>
          <g>
            <path class="cls-1" d="M711.87,414.63h-1.5v-11.48h-4.02v-1.31h9.53v1.31h-4.01v11.48Z"/>
            <path class="cls-1" d="M723.43,414.63l-4.3-11.32h-.07c.02.24.04.53.06.87.02.34.03.72.04,1.12s.02.82.02,1.24v8.08h-1.38v-12.79h2.2l4.05,10.64h.06l4.11-10.64h2.19v12.79h-1.47v-8.19c0-.38,0-.76.02-1.14.01-.38.03-.74.04-1.09.02-.34.04-.64.05-.89h-.07l-4.35,11.3h-1.22Z"/>
          </g>
        </g>
        <g>
          <path class="cls-1" d="M555.67,392.17h-25.31c-8.69,0-15.76,7.07-15.76,15.76v25.31c0,8.69,7.07,15.76,15.76,15.76h25.31c8.69,0,15.76-7.07,15.76-15.76v-25.31c0-8.69-7.07-15.76-15.76-15.76ZM569.98,433.23c0,7.89-6.42,14.3-14.3,14.3h-25.31c-7.89,0-14.3-6.42-14.3-14.3v-25.31c0-7.89,6.42-14.3,14.3-14.3h25.31c7.89,0,14.3,6.42,14.3,14.3v25.31Z"/>
          <path class="cls-1" d="M553.06,436.45c-.34.17-.71.26-1.08.26-.56,0-.96-.19-1.23-.57-.26-.37-.38-1-.38-1.85v-14.39c0-1.66-.14-3.08-.41-4.28-.28-1.19-.87-2.2-1.76-3.03-.45-.42-.98-.77-1.58-1.05.63-.55,1.19-1.12,1.66-1.71.26-.31.49-.61.69-.92.74-1.1,1.25-2.11,1.52-3.04.24-.8.36-1.57.36-2.27.01-.71-.27-1.42-.83-2.12-.5-.63-1.12-1.03-1.89-1.24-.77-.22-1.53,0-2.31.63-.68.54-1.07,1.17-1.19,1.91-.11.73.09,1.43.63,2.11.55.68,1.17,1.07,1.9,1.2.71.13,1.38.05,1.98-.26.01.96-.28,1.84-.91,2.64-.61.8-1.25,1.47-1.93,2.02-.13.1-.27.2-.4.29-.15.11-.3.21-.45.31-.94-.28-2.07-.42-3.35-.42-1.56,0-2.94.19-4.17.57-.04,0-.06.01-.1.03-.87.27-1.62.59-2.27.93-.29.15-.56.32-.8.49-.03.01-.05.04-.08.06-.2.13-.38.28-.56.42-.41.34-.77.7-1.07,1.07-.45.55-.66,1.28-.66,2.17,0,.79.23,1.52.69,2.14.47.65,1.2.96,2.21.96.86,0,1.56-.24,2.12-.74.55-.5.83-1.19.83-2.04s-.24-1.57-.73-2.13c-.49-.55-1.06-.89-1.71-1.03.59-.75,1.37-1.25,2.36-1.49.97-.24,1.9-.37,2.76-.37.91,0,1.71.14,2.44.4.73.26,1.3.77,1.74,1.52.42.77.64,1.86.64,3.32v3.2c0,.79-.36,1.43-1.06,1.91-.7.49-1.61.91-2.72,1.26-1.1.37-2.26.74-3.48,1.15-1.23.4-2.39.88-3.5,1.47-1.1.59-2,1.37-2.72,2.32-.7.97-1.06,2.21-1.06,3.73,0,1.28.27,2.4.8,3.37.54.96,1.33,1.71,2.36,2.25,1.03.54,2.26.8,3.66.8,1.62,0,3.08-.38,4.38-1.14,1.29-.77,2.4-1.91,3.33-3.47,0,1.03.17,1.89.5,2.57.32.66.82,1.17,1.47,1.52.66.34,1.48.52,2.49.52,1.1,0,1.98-.18,2.63-.55.66-.36,1.35-.82,2.08-1.37l-.57-.88c-.49.38-.89.65-1.24.83ZM545.71,432.42c-.79,1.3-1.67,2.28-2.65,2.95-.98.65-2.06.98-3.19.98-1.28,0-2.28-.42-3.03-1.25-.74-.82-1.11-1.93-1.11-3.31s.28-2.5.83-3.36c.55-.87,1.25-1.57,2.09-2.11.84-.52,1.74-1,2.67-1.39.93-.4,1.79-.79,2.58-1.19.8-.4,1.4-.89,1.81-1.48v10.15Z"/>
        </g>
      </g>
      <g>
        <g>
          <g>
            <path class="cls-1" d="M1033.11,38.57c0,1.9-.47,3.53-1.42,4.87s-2.27,2.36-3.97,3.06c-1.7.7-3.7,1.05-6,1.05-1.22,0-2.37-.06-3.45-.18-1.08-.12-2.08-.29-2.99-.51s-1.71-.49-2.39-.81v-3.58c1.1.45,2.44.88,4.02,1.26,1.58.39,3.24.58,4.96.58,1.61,0,2.97-.22,4.09-.65s1.96-1.05,2.54-1.87c.58-.81.87-1.79.87-2.93s-.24-2.02-.72-2.76c-.48-.74-1.28-1.41-2.41-2.02-1.12-.61-2.65-1.26-4.58-1.94-1.36-.48-2.56-1.01-3.6-1.59-1.04-.58-1.91-1.23-2.61-1.97-.7-.73-1.23-1.58-1.59-2.55s-.54-2.07-.54-3.32c0-1.71.44-3.18,1.31-4.4s2.08-2.16,3.62-2.81,3.32-.98,5.33-.98c1.71,0,3.3.16,4.76.48,1.46.32,2.79.76,4.01,1.3l-1.16,3.21c-1.16-.48-2.38-.89-3.68-1.21s-2.63-.48-4.01-.48-2.54.2-3.48.6c-.94.4-1.67.97-2.16,1.7s-.75,1.6-.75,2.61c0,1.13.24,2.06.71,2.81.48.75,1.24,1.41,2.28,1.99s2.43,1.18,4.16,1.81c1.89.69,3.49,1.42,4.81,2.18,1.32.77,2.32,1.71,3.01,2.81.69,1.11,1.03,2.51,1.03,4.21Z"/>
            <path class="cls-1" d="M1042.75,12.94v10.21c0,.59-.01,1.18-.04,1.77s-.08,1.14-.15,1.64h.24c.5-.85,1.13-1.56,1.9-2.14.77-.58,1.64-1.02,2.63-1.32.98-.3,2.02-.45,3.12-.45,1.93,0,3.55.31,4.84.92,1.29.62,2.27,1.57,2.92,2.86.65,1.29.98,2.96.98,5.01v15.68h-3.6v-15.44c0-2.01-.46-3.51-1.37-4.5-.91-1-2.32-1.49-4.21-1.49-1.79,0-3.21.34-4.27,1.02s-1.82,1.68-2.28,3c-.46,1.32-.69,2.93-.69,4.83v12.59h-3.65V12.94h3.65Z"/>
            <path class="cls-1" d="M1068.56,14.04c.6,0,1.12.19,1.55.58.43.39.65.99.65,1.81s-.22,1.41-.65,1.8c-.43.4-.95.59-1.55.59s-1.15-.2-1.57-.59-.63-1-.63-1.8.21-1.42.63-1.81.94-.58,1.57-.58ZM1070.34,23.04v24.07h-3.65v-24.07h3.65Z"/>
            <path class="cls-1" d="M1088.77,25.9h-6v21.22h-3.65v-21.22h-4.26v-1.76l4.26-1.21v-1.6c0-2.02.3-3.66.9-4.93.6-1.27,1.47-2.2,2.61-2.8s2.53-.9,4.17-.9c.92,0,1.77.08,2.54.24.77.16,1.45.34,2.03.55l-.95,2.88c-.5-.16-1.06-.31-1.68-.45-.62-.14-1.26-.21-1.9-.21-1.39,0-2.42.45-3.09,1.35-.67.9-1,2.31-1,4.23v1.76h6v2.86Z"/>
            <path class="cls-1" d="M1100.96,44.57c.6,0,1.21-.05,1.85-.15.63-.1,1.14-.23,1.54-.37v2.83c-.43.19-1.01.35-1.77.48-.76.13-1.49.2-2.21.2-1.27,0-2.43-.22-3.47-.67-1.04-.45-1.87-1.2-2.49-2.27-.62-1.07-.93-2.55-.93-4.44v-14.28h-3.43v-1.78l3.45-1.43,1.45-5.23h2.2v5.58h7.05v2.86h-7.05v14.17c0,1.51.35,2.64,1.04,3.38.69.75,1.62,1.12,2.78,1.12Z"/>
          </g>
          <g>
            <path class="cls-1" d="M1115.27,22.87h-1.5v-11.48h-4.02v-1.31h9.53v1.31h-4.01v11.48Z"/>
            <path class="cls-1" d="M1126.84,22.87l-4.3-11.32h-.07c.02.24.04.53.06.87.02.34.03.72.04,1.12s.02.82.02,1.24v8.08h-1.38v-12.79h2.2l4.05,10.64h.06l4.11-10.64h2.19v12.79h-1.47v-8.19c0-.38,0-.76.02-1.14.01-.38.03-.74.04-1.09.02-.34.04-.64.05-.89h-.07l-4.35,11.3h-1.22Z"/>
          </g>
        </g>
        <g>
          <path class="cls-1" d="M982.52,0h-25.31c-8.69,0-15.76,7.07-15.76,15.76v25.31c0,8.69,7.07,15.76,15.76,15.76h25.31c8.69,0,15.76-7.07,15.76-15.76V15.76c0-8.69-7.07-15.76-15.76-15.76ZM996.83,41.06c0,7.89-6.42,14.3-14.3,14.3h-25.31c-7.89,0-14.3-6.42-14.3-14.3V15.76c0-7.89,6.42-14.3,14.3-14.3h25.31c7.89,0,14.3,6.42,14.3,14.3v25.31Z"/>
          <path class="cls-1" d="M979.91,44.28c-.34.17-.71.26-1.08.26-.56,0-.96-.19-1.23-.57-.26-.37-.38-1-.38-1.85v-14.39c0-1.66-.14-3.08-.41-4.28-.28-1.19-.87-2.2-1.76-3.03-.45-.42-.98-.77-1.58-1.05.63-.55,1.19-1.12,1.66-1.71.26-.31.49-.61.69-.92.74-1.1,1.25-2.11,1.52-3.04.24-.8.36-1.57.36-2.27.01-.71-.27-1.42-.83-2.12-.5-.63-1.12-1.03-1.89-1.24-.77-.22-1.53,0-2.31.63-.68.54-1.07,1.17-1.19,1.91-.11.73.09,1.43.63,2.11.55.68,1.17,1.07,1.9,1.2.71.13,1.38.05,1.98-.26.01.96-.28,1.84-.91,2.64-.61.8-1.25,1.47-1.93,2.02-.13.1-.27.2-.4.29-.15.11-.3.21-.45.31-.94-.28-2.07-.42-3.35-.42-1.56,0-2.94.19-4.17.57-.04,0-.06.01-.1.03-.87.27-1.62.59-2.27.93-.29.15-.56.32-.8.49-.03.01-.05.04-.08.06-.2.13-.38.28-.56.42-.41.34-.77.7-1.07,1.07-.45.55-.66,1.28-.66,2.17,0,.79.23,1.52.69,2.14.47.65,1.2.96,2.21.96.86,0,1.56-.24,2.12-.74.55-.5.83-1.19.83-2.04s-.24-1.57-.73-2.13c-.49-.55-1.06-.89-1.71-1.03.59-.75,1.37-1.25,2.36-1.49.97-.24,1.9-.37,2.76-.37.91,0,1.71.14,2.44.4.73.26,1.3.77,1.74,1.52.42.77.64,1.86.64,3.32v3.2c0,.79-.36,1.43-1.06,1.91-.7.49-1.61.91-2.72,1.26-1.1.37-2.26.74-3.48,1.15-1.23.4-2.39.88-3.5,1.47-1.1.59-2,1.37-2.72,2.32-.7.97-1.06,2.21-1.06,3.73,0,1.28.27,2.4.8,3.37.54.96,1.33,1.71,2.36,2.25,1.03.54,2.26.8,3.66.8,1.62,0,3.08-.38,4.38-1.14,1.29-.77,2.4-1.91,3.33-3.47,0,1.03.17,1.89.5,2.57.32.66.82,1.17,1.47,1.52.66.34,1.48.52,2.49.52,1.1,0,1.98-.18,2.63-.55.66-.36,1.35-.82,2.08-1.37l-.57-.88c-.49.38-.89.65-1.24.83ZM972.56,40.25c-.79,1.3-1.67,2.28-2.65,2.95-.98.65-2.06.98-3.19.98-1.28,0-2.28-.42-3.03-1.25-.74-.82-1.11-1.93-1.11-3.31s.28-2.5.83-3.36c.55-.87,1.25-1.57,2.09-2.11.84-.52,1.74-1,2.67-1.39.93-.4,1.79-.79,2.58-1.19.8-.4,1.4-.89,1.81-1.48v10.15Z"/>
        </g>
      </g>
      <g>
        <g>
          <g>
            <path class="cls-1" d="M1039.72,210.88l-11.53,32.11h-3.76l-11.53-32.11h3.91l7.51,21.15c.31.85.58,1.66.82,2.44s.46,1.52.65,2.24.36,1.41.51,2.09c.15-.67.31-1.37.5-2.1.19-.73.41-1.48.66-2.26.25-.78.53-1.61.83-2.47l7.47-21.09h3.95Z"/>
            <path class="cls-1" d="M1045.43,209.92c.6,0,1.12.19,1.55.58.43.39.65.99.65,1.81s-.22,1.41-.65,1.8c-.43.4-.95.59-1.55.59s-1.15-.2-1.57-.59-.63-1-.63-1.8.21-1.42.63-1.81.94-.58,1.57-.58ZM1047.21,218.92v24.07h-3.65v-24.07h3.65Z"/>
            <path class="cls-1" d="M1061.64,253.8c-3.16,0-5.6-.59-7.31-1.77s-2.57-2.83-2.57-4.95c0-1.51.48-2.8,1.44-3.87.96-1.07,2.29-1.78,3.99-2.13-.63-.29-1.17-.73-1.61-1.32-.45-.59-.67-1.26-.67-2.02,0-.88.25-1.65.74-2.32.49-.67,1.24-1.31,2.25-1.92-1.26-.51-2.28-1.38-3.06-2.6-.78-1.22-1.17-2.65-1.17-4.27,0-1.73.36-3.2,1.08-4.43.72-1.22,1.76-2.16,3.12-2.8,1.36-.64,3.01-.97,4.94-.97.43,0,.85.02,1.29.06.43.04.84.09,1.24.15.39.07.74.14,1.03.23h8.26v2.35l-4.44.55c.44.57.81,1.26,1.1,2.07s.44,1.7.44,2.68c0,2.4-.81,4.31-2.44,5.72-1.62,1.41-3.86,2.12-6.7,2.12-.67,0-1.36-.06-2.06-.18-.72.4-1.26.84-1.64,1.32s-.56,1.04-.56,1.67c0,.47.14.84.43,1.12s.7.48,1.24.6c.54.12,1.19.19,1.95.19h4.24c2.62,0,4.63.55,6.03,1.65,1.4,1.1,2.1,2.7,2.1,4.81,0,2.67-1.08,4.71-3.25,6.13s-5.3,2.13-9.4,2.13ZM1061.75,250.95c1.99,0,3.64-.2,4.95-.6,1.31-.4,2.29-.98,2.94-1.73.65-.76.98-1.65.98-2.69,0-.97-.22-1.69-.66-2.19-.44-.49-1.08-.82-1.93-.99-.85-.17-1.89-.25-3.12-.25h-4.17c-1.08,0-2.03.17-2.83.51s-1.42.83-1.86,1.49c-.43.66-.65,1.48-.65,2.46,0,1.3.55,2.3,1.65,2.98s2.67,1.02,4.7,1.02ZM1062.7,231.71c1.74,0,3.05-.44,3.93-1.32.88-.88,1.32-2.16,1.32-3.84,0-1.8-.45-3.15-1.34-4.05-.89-.9-2.21-1.35-3.95-1.35s-2.95.46-3.85,1.4c-.9.93-1.35,2.29-1.35,4.07,0,1.64.45,2.9,1.36,3.78.91.88,2.2,1.32,3.89,1.32Z"/>
            <path class="cls-1" d="M1081.22,209.92c.6,0,1.12.19,1.55.58.43.39.65.99.65,1.81s-.22,1.41-.65,1.8c-.43.4-.95.59-1.55.59s-1.15-.2-1.57-.59-.63-1-.63-1.8.21-1.42.63-1.81.94-.58,1.57-.58ZM1082.99,218.92v24.07h-3.65v-24.07h3.65Z"/>
            <path class="cls-1" d="M1094.37,243h-3.67v-34.18h3.67v34.18Z"/>
          </g>
          <g>
            <path class="cls-1" d="M1107.16,218.75h-1.5v-11.48h-4.02v-1.31h9.53v1.31h-4.01v11.48Z"/>
            <path class="cls-1" d="M1118.72,218.75l-4.3-11.32h-.07c.02.24.04.53.06.87.02.34.03.72.04,1.12s.02.82.02,1.24v8.08h-1.38v-12.79h2.2l4.05,10.64h.06l4.11-10.64h2.19v12.79h-1.47v-8.19c0-.38,0-.76.02-1.14.01-.38.03-.74.04-1.09.02-.34.04-.64.05-.89h-.07l-4.35,11.3h-1.22Z"/>
          </g>
        </g>
        <g>
          <path class="cls-1" d="M982.52,196.29h-25.31c-8.69,0-15.76,7.07-15.76,15.76v25.31c0,8.69,7.07,15.76,15.76,15.76h25.31c8.69,0,15.76-7.07,15.76-15.76v-25.31c0-8.69-7.07-15.76-15.76-15.76ZM996.83,237.36c0,7.89-6.42,14.3-14.3,14.3h-25.31c-7.89,0-14.3-6.42-14.3-14.3v-25.31c0-7.89,6.42-14.3,14.3-14.3h25.31c7.89,0,14.3,6.42,14.3,14.3v25.31Z"/>
          <path class="cls-1" d="M979.91,240.57c-.34.17-.71.26-1.08.26-.56,0-.96-.19-1.23-.57-.26-.37-.38-1-.38-1.85v-14.39c0-1.66-.14-3.08-.41-4.28-.28-1.19-.87-2.2-1.76-3.03-.45-.42-.98-.77-1.58-1.05.63-.55,1.19-1.12,1.66-1.71.26-.31.49-.61.69-.92.74-1.1,1.25-2.11,1.52-3.04.24-.8.36-1.57.36-2.27.01-.71-.27-1.42-.83-2.12-.5-.63-1.12-1.03-1.89-1.24-.77-.22-1.53,0-2.31.63-.68.54-1.07,1.17-1.19,1.91-.11.73.09,1.43.63,2.11.55.68,1.17,1.07,1.9,1.2.71.13,1.38.05,1.98-.26.01.96-.28,1.84-.91,2.64-.61.8-1.25,1.47-1.93,2.02-.13.1-.27.2-.4.29-.15.11-.3.21-.45.31-.94-.28-2.07-.42-3.35-.42-1.56,0-2.94.19-4.17.57-.04,0-.06.01-.1.03-.87.27-1.62.59-2.27.93-.29.15-.56.32-.8.49-.03.01-.05.04-.08.06-.2.13-.38.28-.56.42-.41.34-.77.7-1.07,1.07-.45.55-.66,1.28-.66,2.17,0,.79.23,1.52.69,2.14.47.65,1.2.96,2.21.96.86,0,1.56-.24,2.12-.74.55-.5.83-1.19.83-2.04s-.24-1.57-.73-2.13c-.49-.55-1.06-.89-1.71-1.03.59-.75,1.37-1.25,2.36-1.49.97-.24,1.9-.37,2.76-.37.91,0,1.71.14,2.44.4.73.26,1.3.77,1.74,1.52.42.77.64,1.86.64,3.32v3.2c0,.79-.36,1.43-1.06,1.91-.7.49-1.61.91-2.72,1.26-1.1.37-2.26.74-3.48,1.15-1.23.4-2.39.88-3.5,1.47-1.1.59-2,1.37-2.72,2.32-.7.97-1.06,2.21-1.06,3.73,0,1.28.27,2.4.8,3.37.54.96,1.33,1.71,2.36,2.25,1.03.54,2.26.8,3.66.8,1.62,0,3.08-.38,4.38-1.14,1.29-.77,2.4-1.91,3.33-3.47,0,1.03.17,1.89.5,2.57.32.66.82,1.17,1.47,1.52.66.34,1.48.52,2.49.52,1.1,0,1.98-.18,2.63-.55.66-.36,1.35-.82,2.08-1.37l-.57-.88c-.49.38-.89.65-1.24.83ZM972.56,236.54c-.79,1.3-1.67,2.28-2.65,2.95-.98.65-2.06.98-3.19.98-1.28,0-2.28-.42-3.03-1.25-.74-.82-1.11-1.93-1.11-3.31s.28-2.5.83-3.36c.55-.87,1.25-1.57,2.09-2.11.84-.52,1.74-1,2.67-1.39.93-.4,1.79-.79,2.58-1.19.8-.4,1.4-.89,1.81-1.48v10.15Z"/>
        </g>
      </g>
      <g>
        <g>
          <g>
            <path class="cls-1" d="M1039.72,406.76l-11.53,32.11h-3.76l-11.53-32.11h3.91l7.51,21.15c.31.85.58,1.66.82,2.44s.46,1.52.65,2.24.36,1.41.51,2.09c.15-.67.31-1.37.5-2.1.19-.73.41-1.48.66-2.26.25-.78.53-1.61.83-2.47l7.47-21.09h3.95Z"/>
            <path class="cls-1" d="M1052.84,414.36c2.05,0,3.81.45,5.27,1.36s2.58,2.18,3.36,3.81,1.16,3.54,1.16,5.72v2.26h-16.63c.04,2.83.75,4.98,2.11,6.46,1.36,1.48,3.28,2.22,5.75,2.22,1.52,0,2.87-.14,4.04-.42,1.17-.28,2.39-.69,3.65-1.23v3.21c-1.21.54-2.42.94-3.61,1.19-1.19.25-2.6.37-4.23.37-2.31,0-4.33-.47-6.05-1.42-1.72-.95-3.06-2.33-4.01-4.16-.95-1.83-1.43-4.07-1.43-6.72s.44-4.84,1.31-6.73,2.1-3.36,3.69-4.38c1.59-1.02,3.46-1.54,5.61-1.54ZM1052.79,417.35c-1.95,0-3.5.64-4.66,1.91s-1.85,3.05-2.06,5.34h12.74c-.01-1.43-.24-2.7-.67-3.79-.43-1.09-1.09-1.94-1.97-2.55-.88-.61-2.01-.91-3.38-.91Z"/>
            <path class="cls-1" d="M1072.5,438.88h-3.67v-34.18h3.67v34.18Z"/>
            <path class="cls-1" d="M1100.94,426.8c0,1.98-.26,3.74-.77,5.29-.51,1.55-1.25,2.86-2.22,3.93s-2.13,1.88-3.5,2.45-2.92.85-4.65.85c-1.61,0-3.09-.28-4.43-.85-1.34-.56-2.5-1.38-3.47-2.45s-1.73-2.38-2.26-3.93-.8-3.32-.8-5.29c0-2.64.45-4.88,1.34-6.73.89-1.85,2.17-3.27,3.83-4.24s3.64-1.46,5.94-1.46,4.12.49,5.77,1.47c1.65.98,2.93,2.4,3.84,4.25.91,1.85,1.37,4.09,1.37,6.71ZM1082.62,426.8c0,1.93.26,3.61.77,5.03.51,1.42,1.3,2.52,2.37,3.3,1.07.78,2.44,1.16,4.13,1.16s3.04-.39,4.12-1.16c1.08-.78,1.87-1.87,2.38-3.3.51-1.42.77-3.1.77-5.03s-.26-3.58-.77-4.98c-.51-1.4-1.3-2.48-2.37-3.24-1.07-.76-2.45-1.14-4.15-1.14-2.5,0-4.34.83-5.5,2.48-1.16,1.66-1.75,3.95-1.75,6.88Z"/>
            <path class="cls-1" d="M1116.89,439.32c-2.17,0-4.08-.45-5.73-1.34s-2.94-2.25-3.87-4.09-1.38-4.14-1.38-6.92.49-5.3,1.46-7.15c.97-1.85,2.32-3.23,4.03-4.12,1.71-.89,3.66-1.34,5.84-1.34,1.2,0,2.36.12,3.48.36s2.04.55,2.76.91l-1.1,3.05c-.73-.29-1.58-.56-2.54-.79-.96-.23-1.86-.35-2.69-.35-1.67,0-3.06.36-4.16,1.08-1.1.72-1.93,1.77-2.48,3.16s-.82,3.1-.82,5.14.27,3.61.8,4.99c.53,1.38,1.33,2.43,2.39,3.15s2.39,1.09,3.99,1.09c1.27,0,2.42-.14,3.45-.41,1.02-.27,1.95-.59,2.79-.96v3.25c-.81.41-1.7.72-2.69.94-.99.22-2.16.33-3.53.33Z"/>
          </g>
          <g>
            <path class="cls-1" d="M1131.65,414.63h-1.5v-11.48h-4.02v-1.31h9.53v1.31h-4.01v11.48Z"/>
            <path class="cls-1" d="M1143.21,414.63l-4.3-11.32h-.07c.02.24.04.53.06.87.02.34.03.72.04,1.12s.02.82.02,1.24v8.08h-1.38v-12.79h2.2l4.05,10.64h.06l4.11-10.64h2.19v12.79h-1.47v-8.19c0-.38,0-.76.02-1.14.01-.38.03-.74.04-1.09.02-.34.04-.64.05-.89h-.07l-4.35,11.3h-1.22Z"/>
          </g>
        </g>
        <g>
          <path class="cls-1" d="M982.52,392.17h-25.31c-8.69,0-15.76,7.07-15.76,15.76v25.31c0,8.69,7.07,15.76,15.76,15.76h25.31c8.69,0,15.76-7.07,15.76-15.76v-25.31c0-8.69-7.07-15.76-15.76-15.76ZM996.83,433.23c0,7.89-6.42,14.3-14.3,14.3h-25.31c-7.89,0-14.3-6.42-14.3-14.3v-25.31c0-7.89,6.42-14.3,14.3-14.3h25.31c7.89,0,14.3,6.42,14.3,14.3v25.31Z"/>
          <path class="cls-1" d="M979.91,436.45c-.34.17-.71.26-1.08.26-.56,0-.96-.19-1.23-.57-.26-.37-.38-1-.38-1.85v-14.39c0-1.66-.14-3.08-.41-4.28-.28-1.19-.87-2.2-1.76-3.03-.45-.42-.98-.77-1.58-1.05.63-.55,1.19-1.12,1.66-1.71.26-.31.49-.61.69-.92.74-1.1,1.25-2.11,1.52-3.04.24-.8.36-1.57.36-2.27.01-.71-.27-1.42-.83-2.12-.5-.63-1.12-1.03-1.89-1.24-.77-.22-1.53,0-2.31.63-.68.54-1.07,1.17-1.19,1.91-.11.73.09,1.43.63,2.11.55.68,1.17,1.07,1.9,1.2.71.13,1.38.05,1.98-.26.01.96-.28,1.84-.91,2.64-.61.8-1.25,1.47-1.93,2.02-.13.1-.27.2-.4.29-.15.11-.3.21-.45.31-.94-.28-2.07-.42-3.35-.42-1.56,0-2.94.19-4.17.57-.04,0-.06.01-.1.03-.87.27-1.62.59-2.27.93-.29.15-.56.32-.8.49-.03.01-.05.04-.08.06-.2.13-.38.28-.56.42-.41.34-.77.7-1.07,1.07-.45.55-.66,1.28-.66,2.17,0,.79.23,1.52.69,2.14.47.65,1.2.96,2.21.96.86,0,1.56-.24,2.12-.74.55-.5.83-1.19.83-2.04s-.24-1.57-.73-2.13c-.49-.55-1.06-.89-1.71-1.03.59-.75,1.37-1.25,2.36-1.49.97-.24,1.9-.37,2.76-.37.91,0,1.71.14,2.44.4.73.26,1.3.77,1.74,1.52.42.77.64,1.86.64,3.32v3.2c0,.79-.36,1.43-1.06,1.91-.7.49-1.61.91-2.72,1.26-1.1.37-2.26.74-3.48,1.15-1.23.4-2.39.88-3.5,1.47-1.1.59-2,1.37-2.72,2.32-.7.97-1.06,2.21-1.06,3.73,0,1.28.27,2.4.8,3.37.54.96,1.33,1.71,2.36,2.25,1.03.54,2.26.8,3.66.8,1.62,0,3.08-.38,4.38-1.14,1.29-.77,2.4-1.91,3.33-3.47,0,1.03.17,1.89.5,2.57.32.66.82,1.17,1.47,1.52.66.34,1.48.52,2.49.52,1.1,0,1.98-.18,2.63-.55.66-.36,1.35-.82,2.08-1.37l-.57-.88c-.49.38-.89.65-1.24.83ZM972.56,432.42c-.79,1.3-1.67,2.28-2.65,2.95-.98.65-2.06.98-3.19.98-1.28,0-2.28-.42-3.03-1.25-.74-.82-1.11-1.93-1.11-3.31s.28-2.5.83-3.36c.55-.87,1.25-1.57,2.09-2.11.84-.52,1.74-1,2.67-1.39.93-.4,1.79-.79,2.58-1.19.8-.4,1.4-.89,1.81-1.48v10.15Z"/>
        </g>
      </g>
    </g>
  </g>
</svg>